<?xml version="1.0" standalone="no"?>
<!DOCTYPE svg PUBLIC "-//W3C//DTD SVG 1.1//EN" "http://www.w3.org/Graphics/SVG/1.1/DTD/svg11.dtd" >
<svg xmlns="http://www.w3.org/2000/svg">
<metadata>Generated by IcoMoon</metadata>
<defs>
<font id="icomoon" horiz-adv-x="1024">
<font-face units-per-em="1024" ascent="960" descent="-64" />
<missing-glyph horiz-adv-x="1024" />
<glyph unicode="&#x20;" horiz-adv-x="512" d="" />
<glyph unicode="&#xe900;" glyph-name="facebook-app-symbol" d="M591.302-64v467.060h156.71l23.511 182.076h-180.221v116.229c0 52.699 14.574 88.612 90.229 88.612l96.335 0.040v162.855c-16.66 2.165-73.847 7.129-140.407 7.129-138.987 0-234.141-84.837-234.141-240.603v-134.261h-157.185v-182.076h157.185v-467.060h187.983z" />
<glyph unicode="&#xe901;" glyph-name="twitter" d="M1024 765.504c-38.080-16.704-78.656-27.776-120.96-33.152 43.52 25.984 76.736 66.816 92.352 116.032-40.576-24.192-85.376-41.28-133.12-50.816-38.528 41.024-93.44 66.432-153.344 66.432-116.224 0-209.792-94.336-209.792-209.984 0-16.64 1.408-32.64 4.864-47.872-174.528 8.512-328.96 92.16-432.704 219.584-18.112-31.424-28.736-67.392-28.736-106.112 0-72.704 37.44-137.152 93.248-174.464-33.728 0.64-66.816 10.432-94.848 25.856 0-0.64 0-1.472 0-2.304 0-102.016 72.768-186.752 168.192-206.272-17.088-4.672-35.712-6.912-55.040-6.912-13.44 0-27.008 0.768-39.744 3.584 27.2-83.136 104.384-144.256 196.16-146.24-71.424-55.872-162.112-89.536-260.288-89.536-17.216 0-33.728 0.768-50.24 2.88 92.992-59.968 203.2-94.208 322.048-94.208 386.304 0 597.504 320 597.504 597.376 0 9.28-0.32 18.24-0.768 27.136 41.664 29.568 76.672 66.496 105.216 108.992z" />
<glyph unicode="&#xe902;" glyph-name="instagram" d="M746.811 960h-469.624c-152.843 0-277.187-124.344-277.187-277.187v-469.632c0-152.836 124.344-277.179 277.187-277.179h469.632c152.836 0 277.179 124.344 277.179 277.179v469.632c0 152.843-124.344 277.187-277.187 277.187zM963.967 213.181c0-119.734-97.414-217.148-217.156-217.148h-469.624c-119.742 0-217.156 97.414-217.156 217.148v469.632c0 119.742 97.414 217.156 217.156 217.156h469.632c119.734 0 217.148-97.414 217.148-217.156zM511.999 727.993c-154.39 0-279.992-125.601-279.992-279.992s125.601-279.992 279.992-279.992 279.992 125.601 279.992 279.992-125.601 279.992-279.992 279.992zM511.999 228.040c-121.281 0-219.961 98.672-219.961 219.961 0 121.281 98.68 219.961 219.961 219.961 121.289 0 219.961-98.68 219.961-219.961 0-121.289-98.672-219.961-219.961-219.961zM798.686 827.43c-45.625 0-82.734-37.117-82.734-82.734 0-45.625 37.109-82.742 82.734-82.742s82.742 37.117 82.742 82.742-37.117 82.734-82.742 82.734zM798.686 721.993c-12.516 0-22.703 10.187-22.703 22.703 0 12.523 10.187 22.703 22.703 22.703 12.523 0 22.711-10.18 22.711-22.703 0-12.516-10.187-22.703-22.711-22.703z" />
<glyph unicode="&#xe903;" glyph-name="mail" d="M971.486 789.334h-918.972c-28.884 0-52.514-23.63-52.514-52.512v-577.642c0-28.88 23.63-52.514 52.514-52.514h918.974c28.88 0 52.514 23.63 52.514 52.514v577.642c-0.002 28.882-23.632 52.512-52.516 52.512zM951.78 749.952l-409.572-307.204c-7.364-5.604-18.668-9.11-30.21-9.058-11.54-0.052-22.842 3.454-30.208 9.058l-409.572 307.204h879.562zM733 422.478l223.18-275.694c0.224-0.276 0.498-0.486 0.736-0.736h-889.832c0.236 0.262 0.512 0.46 0.736 0.736l223.18 275.694c6.838 8.454 5.542 20.848-2.928 27.702-8.454 6.838-20.848 5.542-27.688-2.914l-221-273.002v551.072l418.788-314.092c15.742-11.724 34.894-16.884 53.824-16.936 18.904 0.040 38.072 5.2 53.824 16.936l418.788 314.092v-551.068l-220.994 272.998c-6.84 8.454-19.246 9.754-27.688 2.914-8.468-6.838-9.768-19.248-2.926-27.702z" />
<glyph unicode="&#xe904;" glyph-name="mail-1" d="M930.91 820.364h-837.82c-51.412 0-93.090-41.678-93.090-93.092v-558.546c0-51.412 41.678-93.090 93.090-93.090h837.818c51.412 0 93.090 41.678 93.090 93.090v558.546c0.002 51.414-41.676 93.092-93.088 93.092zM93.090 773.818h837.818c5.318-0.034 10.592-0.978 15.592-2.792l-402.85-402.852c-17.302-17.416-45.446-17.508-62.862-0.206-0.068 0.068-0.138 0.138-0.206 0.206l-403.084 402.852c5 1.814 10.274 2.76 15.592 2.792zM46.546 168.728v558.544c-0.238 2.71-0.238 5.436 0 8.146l288.116-287.418-288.116-287.418c-0.238 2.71-0.238 5.436 0 8.146zM930.91 122.182h-837.82c-5.318 0.034-10.592 0.978-15.592 2.792l290.21 290.21 79.826-79.826c35.47-35.604 93.084-35.712 128.688-0.242 0.082 0.080 0.162 0.162 0.242 0.242l79.826 79.826 290.21-290.21c-4.998-1.814-10.272-2.76-15.59-2.792zM977.454 160.582l-288.116 287.418 288.116 287.418c0.238-2.71 0.238-5.436 0-8.146v-558.546c0.238-2.708 0.238-5.434 0-8.144z" />
<glyph unicode="&#xe905;" glyph-name="wall-clock" d="M511.999 960c-282.311 0-511.999-229.688-511.999-511.999s229.688-511.999 511.999-511.999 511.999 229.688 511.999 511.999-229.686 511.999-511.999 511.999zM511.999-19.477c-257.781 0-467.478 209.697-467.478 467.478s209.697 467.478 467.478 467.478 467.478-209.697 467.478-467.478-209.697-467.478-467.478-467.478zM728.107 263.368l-193.847 193.849v346.956c0 12.288-9.974 22.262-22.262 22.262s-22.262-9.974-22.262-22.262v-356.174c0-5.921 2.36-11.576 6.501-15.761l200.348-200.348c4.364-4.318 10.061-6.501 15.761-6.501s11.397 2.181 15.761 6.501c8.682 8.684 8.682 22.796 0 31.478z" />
<glyph unicode="&#xe906;" glyph-name="down-arrow" d="M512 256c-8.184 0-16.376 3.128-22.624 9.376l-320 320c-12.504 12.504-12.504 32.752 0 45.248s32.752 12.504 45.248 0l297.376-297.376 297.376 297.376c12.504 12.504 32.752 12.504 45.248 0s12.504-32.752 0-45.248l-320-320c-6.248-6.248-14.44-9.376-22.624-9.376z" />
<glyph unicode="&#xe907;" glyph-name="down-arrow-1" d="M1017.489 708.631c-8.682 8.682-22.796 8.682-31.478 0l-473.987-474.033-474.033 473.987c-8.682 8.682-22.796 8.682-31.478 0s-8.682-22.796 0-31.478l489.75-489.75c4.364-4.318 10.061-6.501 15.761-6.501s11.397 2.181 15.717 6.545l489.75 489.75c8.68 8.684 8.68 22.798-0.002 31.48z" />
<glyph unicode="&#xe908;" glyph-name="headphones" d="M862.285 609.715c0 193.457-156.828 350.285-350.285 350.285s-350.285-156.828-350.285-350.285c-50.013-6.227-97.301-38.921-97.301-114.816v-182.927c0-85.625 59.938-116.762 116.762-116.762h56.435c10.747 0 19.46 8.713 19.46 19.46v376.751c0 10.747-8.713 19.46-19.46 19.46h-36.975c0 171.961 139.404 311.365 311.365 311.365s311.365-139.404 311.365-311.365h-36.975c-10.747 0-19.46-8.713-19.46-19.46v-376.167c0-10.747 8.713-19.46 19.46-19.46h36.975c-5.449-133.692-69.668-165.023-197.911-170.667v13.038c0 21.496-17.424 38.921-38.921 38.921h-122.405c-21.496 0-38.921-17.424-38.921-38.921v-63.246c0-21.496 17.424-38.921 38.921-38.921h122.794c21.496 0 38.921 17.424 38.921 38.921v11.287c123.378 5.643 230.021 31.136 236.442 210.755 50.013 6.227 97.301 38.921 97.301 114.816v182.927c0 76.284-47.094 108.783-97.301 115.010zM218.15 573.324v-338.609h-37.948c-28.801 0-77.841 10.119-77.841 77.841v182.927c0 67.138 48.456 77.841 77.841 77.841h37.948zM586.922 4.306v-29.58h-122.794v63.246h122.794v-33.666zM920.666 311.973c0-67.138-48.456-77.841-77.841-77.841h-36.975v337.83h37.948c28.801 0 77.841-10.119 77.841-77.841l-0.973-182.148z" />
<glyph unicode="&#xe909;" glyph-name="left-arrow" d="M1000.728 471.843h-921.352l192.927 192.927c9.126 9.062 9.178 23.806 0.116 32.929-9.062 9.126-23.806 9.178-32.929 0.116l-232.722-232.722c-9.024-9.078-9.024-23.738 0-32.813l232.724-232.724c8.36-9.762 23.052-10.9 32.813-2.538 9.762 8.36 10.9 23.052 2.538 32.813-0.78 0.91-1.628 1.76-2.538 2.538l-192.927 192.927h921.352c12.854 0 23.272 10.42 23.272 23.272s-10.422 23.276-23.274 23.276z" />
<glyph unicode="&#xe90a;" glyph-name="right-arrow" d="M1017.232 464.407v0l-232.722 232.724c-8.36 9.762-23.052 10.9-32.813 2.538-9.762-8.36-10.9-23.052-2.538-32.813 0.78-0.91 1.628-1.76 2.538-2.538l192.927-193.161h-921.352c-12.852 0-23.272-10.42-23.272-23.274s10.42-23.272 23.272-23.272h921.352l-192.927-192.927c-9.762-8.36-10.9-23.052-2.538-32.813s23.052-10.9 32.813-2.538c0.91 0.78 1.76 1.628 2.538 2.538l232.724 232.724c9.022 9.074 9.022 23.734-0.002 32.811z" />
<glyph unicode="&#xe90b;" glyph-name="helicopter" d="M119.467 601.6c-28.277 0-51.2-22.923-51.2-51.2s22.923-51.2 51.2-51.2c28.277 0 51.2 22.923 51.2 51.2v0c0 28.277-22.923 51.2-51.2 51.2v0zM119.467 533.333c-9.426 0-17.067 7.641-17.067 17.067s7.641 17.067 17.067 17.067c9.426 0 17.067-7.641 17.067-17.067v0c0-9.426-7.641-17.067-17.067-17.067v0zM665.6 499.2h-17.067v17.067c0 18.851-15.282 34.133-34.133 34.133v0h-34.133c-18.851 0-34.133-15.282-34.133-34.133v0-17.067h-17.067c-18.851 0-34.133-15.282-34.133-34.133v0-34.133c0-18.851 15.282-34.133 34.133-34.133v0h17.067v-17.067c0-18.851 15.282-34.133 34.133-34.133v0h34.133c18.851 0 34.133 15.282 34.133 34.133v0 17.067h17.067c18.851 0 34.133 15.282 34.133 34.133v0 34.133c0 18.851-15.282 34.133-34.133 34.133v0zM665.6 430.933h-34.133c-9.426 0-17.067-7.641-17.067-17.067v0-34.133h-34.133v34.133c0 9.426-7.641 17.067-17.067 17.067v0h-34.133v34.133h34.133c9.426 0 17.067 7.641 17.067 17.067v0 34.133h34.133v-34.133c0-9.426 7.641-17.067 17.067-17.067v0h34.133zM875.401 435.934c3.066-2.964 7.248-4.791 11.856-4.791 9.426 0 17.067 7.641 17.067 17.067 0 4.609-1.827 8.79-4.795 11.861l-68.262 68.262c-3.066 2.964-7.248 4.791-11.856 4.791-9.426 0-17.067-7.641-17.067-17.067 0-4.609 1.827-8.79 4.795-11.861l-0.005 0.005zM1006.933 721.067c9.426 0 17.067 7.641 17.067 17.067s-7.641 17.067-17.067 17.067v0h-341.333v17.067c0 9.426-7.641 17.067-17.067 17.067s-17.067-7.641-17.067-17.067v0-17.067h-341.333c-9.426 0-17.067-7.641-17.067-17.067s7.641-17.067 17.067-17.067v0h341.333v-34.133h-51.2c-37.703 0-68.267-30.564-68.267-68.267v0h-294.639c-21.865 31.155-57.628 51.269-98.088 51.269-65.98 0-119.467-53.487-119.467-119.467s53.487-119.467 119.467-119.467c34.341 0 65.297 14.489 87.090 37.688l0.059 0.063 220.245-35.311v-53.709c0.107-94.214 76.453-170.56 170.656-170.667h0.010v-68.267h-37.069c-27.453 0.080-52.294 11.194-70.336 29.137l0.004-0.004c-3.066 2.964-7.248 4.791-11.856 4.791-9.426 0-17.067-7.641-17.067-17.067 0-4.609 1.827-8.79 4.795-11.861l-0.005 0.005c24.227-24.094 57.592-39.022 94.442-39.134h347.226c36.872 0.112 70.237 15.040 94.47 39.14l-0.006-0.006c2.964 3.066 4.791 7.248 4.791 11.856 0 9.426-7.641 17.067-17.067 17.067-4.609 0-8.79-1.827-11.861-4.795l0.005 0.005c-18.037-17.939-42.879-29.053-70.316-29.133h-37.085v68.267c0.051 0 0.111 0 0.171 0 84.737 0 153.429 68.693 153.429 153.429 0 0.060 0 0.12 0 0.18v-0.009c0 5.513-0.478 10.923-0.836 16.35 0 0.256 0.154 0.461 0.154 0.717s-0.205 0.785-0.239 1.195c-9.518 127.198-110.689 227.975-237.205 236.823l-0.806 0.045v0.87c0 37.703-30.564 68.267-68.267 68.267v0h-51.2v34.133zM119.467 465.067c-47.128 0-85.333 38.205-85.333 85.333s38.205 85.333 85.333 85.333c47.128 0 85.333-38.205 85.333-85.333v0c-0.058-47.105-38.228-85.275-85.328-85.333h-0.006zM836.267 140.8h-204.8v68.267h204.8zM954.982 278.187c-21.619-21.617-51.484-34.987-84.471-34.987-0.039 0-0.078 0-0.117 0h-273.061c-75.37 0.087-136.446 61.163-136.533 136.525v136.542c0 9.426-7.641 17.067-17.067 17.067s-17.067-7.641-17.067-17.067v0-48.247l-199.083 31.898c7.163 14.785 11.349 32.158 11.349 50.508 0 12.166-1.84 23.902-5.257 34.945l0.223-0.836h499.968v-136.533c0.058-47.105 38.228-85.275 85.328-85.333h170.672c0-0.052 0-0.113 0-0.175 0-32.917-13.33-62.72-34.886-84.307l0.001 0.001zM986.965 396.8h-167.765c-28.277 0-51.2 22.923-51.2 51.2v0 136.533c110.349-0.208 201.793-80.882 218.796-186.461l0.169-1.272zM750.933 618.667h-204.8c0 18.851 15.282 34.133 34.133 34.133v0h136.533c18.851 0 34.133-15.282 34.133-34.133v0z" />
<glyph unicode="&#xe90c;" glyph-name="check" d="M879.514 718.986c17.916-15.677 19.541-42.987 3.605-60.674l-448.593-497.911c-16.019-17.779-43.523-18.91-60.946-2.509l-259.585 244.378c-16.189 15.241-17.738 40.636-3.849 57.997 15.326 19.157 43.866 21.794 62.106 5.389l201.403-181.158c17.503-15.744 44.45-14.336 60.219 3.145l385.856 427.815c15.612 17.312 42.24 18.882 59.785 3.529z" />
<glyph unicode="&#xe90d;" glyph-name="tick" d="M357.376 147.456c-8.704 0-17.050 3.43-23.194 9.574l-226.304 226.304c-12.8 12.8-12.8 33.536 0 46.336s33.536 12.8 46.336 0l203.162-203.11 512.358 512.41c12.8 12.8 33.536 12.8 46.336 0s12.8-33.536 0-46.336l-535.552-535.552c-6.144-6.195-14.438-9.626-23.142-9.626z" />
<glyph unicode="&#xe90e;" glyph-name="check-mark" d="M472.59 52.498c-5.71 0.001-10.852 2.431-14.448 6.314l-0.012 0.013-389.882 421.74c-3.243 3.5-5.232 8.201-5.232 13.367 0 10.876 8.816 19.692 19.692 19.692h187.668c5.921-0.001 11.232-2.614 14.844-6.749l130.32-149.929c14.082 30.102 41.342 80.223 89.179 141.296 70.719 90.289 202.26 223.076 427.311 342.947 2.68 1.455 5.868 2.311 9.256 2.311 10.876 0 19.692-8.817 19.692-19.692 0-6.29-2.949-11.891-7.539-15.496l-0.043-0.032c-0.859-0.672-87.631-69.004-187.494-194.166-91.908-115.18-214.083-303.518-274.202-546.658-2.194-8.66-9.918-14.965-19.115-14.966v0z" />
<glyph unicode="&#xe90f;" glyph-name="pointed-star" d="M655.897 566.746c-11.313 0-23.323 8.732-26.828 19.49l-110.737 340.796c-3.505 10.761-9.16 10.761-12.665 0l-110.717-340.796c-3.505-10.761-15.514-19.49-26.828-19.49h-358.34c-11.313 0-13.076-5.391-3.916-12.052l289.887-210.589c9.16-6.662 13.752-20.781 10.247-31.543l-110.714-340.776c-3.505-10.761 1.087-14.1 10.247-7.441l289.887 210.589c9.16 6.662 24.001 6.662 33.161 0l289.887-210.609c9.16-6.662 13.752-3.321 10.247 7.441l-110.717 340.776c-3.505 10.761 1.087 24.881 10.247 31.543l289.887 210.589c9.16 6.662 7.398 12.052-3.916 12.052l-358.32 0.020z" />
<glyph unicode="&#xe910;" glyph-name="star" d="M1003.416 556.839c-2.637 8.113-10.199 13.607-18.729 13.607h-346.472l-107.36 355.856c-2.509 8.316-10.169 14.005-18.853 14.005-8.686 0-16.345-5.689-18.853-14.005l-107.362-355.858h-346.47c-8.531 0-16.093-5.494-18.729-13.607-2.635-8.115 0.252-17.002 7.154-22.018l280.755-203.981-107.453-349.67c-2.534-8.247 0.595-17.185 7.721-22.049 7.129-4.864 16.593-4.523 23.345 0.843l279.893 222.222 279.893-222.222c3.572-2.836 7.904-4.269 12.247-4.269 13.154 0 22.731 12.753 18.822 25.478l-107.453 349.67 280.755 203.981c6.9 5.014 9.789 13.903 7.152 22.018zM680.976 354.434c-6.808-4.947-9.722-13.67-7.249-21.715l92.94-302.44-242.422 192.471c-7.17 5.693-17.319 5.693-24.489 0l-242.42-192.471 92.938 302.44c2.471 8.044-0.441 16.77-7.249 21.715l-243.104 176.626h300.493c8.684 0 16.345 5.689 18.853 14.003l92.733 307.373 92.733-307.373c2.509-8.314 10.169-14.003 18.853-14.003h300.493z" />
<glyph unicode="&#xe911;" glyph-name="pin" d="M512 960c-208.583 0-378.27-169.688-378.27-378.27 0-68.667 30.796-142.519 32.086-145.634 9.946-23.609 29.572-60.278 43.724-81.773l259.36-392.978c10.614-16.11 26.323-25.344 43.101-25.344s32.487 9.234 43.101 25.322l259.382 393.001c14.174 21.495 33.777 58.165 43.724 81.773 1.291 3.093 32.064 76.945 32.064 145.634 0 208.583-169.688 378.27-378.27 378.27zM817.175 453.363c-8.878-21.161-27.146-55.272-39.852-74.542l-259.382-393.001c-5.118-7.766-6.742-7.766-11.86 0l-259.382 393.001c-12.705 19.27-30.974 53.403-39.852 74.564-0.378 0.912-28.615 68.89-28.615 128.345 0 184.040 149.728 333.768 333.768 333.768s333.768-149.728 333.768-333.768c0-59.544-28.304-127.7-28.593-128.367zM512 781.968c-110.433 0-200.261-89.85-200.261-200.261s89.828-200.261 200.261-200.261c110.433 0 200.261 89.85 200.261 200.261s-89.828 200.261-200.261 200.261zM512 425.949c-85.867 0-155.758 69.869-155.758 155.758s69.891 155.758 155.758 155.758 155.758-69.869 155.758-155.758-69.891-155.758-155.758-155.758z" />
<glyph unicode="&#xe912;" glyph-name="play" d="M946.685 492.645l-819.197 460.799c-15.872 8.909-35.225 8.704-50.893-0.41-15.77-9.216-25.395-26.010-25.395-44.237v-921.597c0-18.227 9.626-35.021 25.395-44.237 7.987-4.608 16.896-6.963 25.805-6.963 8.602 0 17.306 2.15 25.088 6.554l819.197 460.799c16.077 9.114 26.112 26.112 26.112 44.646s-10.035 35.533-26.112 44.646z" />
<glyph unicode="&#xe913;" glyph-name="share" d="M812 296c-59.272 0-111.938-28.804-144.756-73.142l-282.54 144.39c4.74 16.104 7.296 33.134 7.296 50.752 0 23.862-4.678 46.648-13.148 67.506l296.12 177.916c33.040-38.78 82.208-63.422 137.028-63.422 99.252 0 180 80.748 180 180s-80.748 180-180 180c-99.252 0-180-80.748-180-180 0-22.94 4.322-44.886 12.18-65.080l-296.86-178.36c-33.016 37.636-81.438 61.44-135.32 61.44-99.252 0-180-80.748-180-180s80.748-180 180-180c60.244 0 113.664 29.752 146.354 75.332l281.72-143.97c-5.246-16.868-8.074-34.79-8.074-53.362 0-99.252 80.748-180 180-180s180 80.748 180 180c0 99.252-80.748 180-180 180zM812 900c66.168 0 120-53.832 120-120s-53.832-120-120-120-120 53.832-120 120 53.832 120 120 120zM212 298c-66.168 0-120 53.832-120 120s53.832 120 120 120 120-53.832 120-120-53.832-120-120-120zM812-4c-66.168 0-120 53.832-120 120s53.832 120 120 120 120-53.832 120-120-53.832-120-120-120z" />
<glyph unicode="&#xe914;" glyph-name="telephone" d="M208.66 279.314c101-120.733 222.581-215.791 361.349-283.053 52.834-25.038 123.491-54.743 202.211-59.836 4.88-0.212 9.548-0.424 14.429-0.424 52.834 0 95.271 18.248 129.857 55.804 0.212 0.212 0.637 0.637 0.849 1.061 12.307 14.853 26.311 28.22 40.952 42.437 9.973 9.548 20.157 19.521 29.918 29.706 45.195 47.105 45.195 106.941-0.424 152.56l-127.523 127.523c-21.643 22.492-47.529 34.374-74.689 34.374s-53.258-11.882-75.538-34.162l-75.962-75.962c-7.002 4.031-14.216 7.639-21.006 11.034-8.487 4.244-16.338 8.275-23.34 12.731-69.172 43.922-131.978 101.212-192.027 174.84-30.342 38.405-50.712 70.657-64.928 103.546 19.945 18.036 38.617 36.92 56.653 55.38 6.366 6.578 12.943 13.155 19.521 19.733 22.916 22.916 35.223 49.439 35.223 76.386s-12.094 53.47-35.223 76.386l-63.231 63.231c-7.426 7.426-14.429 14.641-21.643 22.067-14.004 14.429-28.645 29.281-43.073 42.649-21.855 21.431-47.529 32.676-74.689 32.676-26.947 0-52.834-11.246-75.538-32.889l-79.357-79.357c-28.857-28.857-45.195-63.867-48.59-104.395-4.031-50.712 5.305-104.607 29.494-169.747 37.132-100.787 93.149-194.361 176.325-294.299zM54.614 738.904c2.546 28.22 13.368 51.773 33.737 72.143l78.932 78.932c12.307 11.882 25.886 18.036 39.042 18.036 12.943 0 26.099-6.153 38.193-18.46 14.216-13.155 27.584-26.947 42.012-41.588 7.214-7.426 14.641-14.853 22.067-22.492l63.231-63.231c13.155-13.155 19.945-26.523 19.945-39.678s-6.79-26.523-19.945-39.678c-6.578-6.578-13.155-13.368-19.733-19.945-19.733-19.945-38.193-38.83-58.563-56.865-0.424-0.424-0.637-0.637-1.061-1.061-17.611-17.611-14.853-34.374-10.609-47.105 0.212-0.637 0.424-1.061 0.637-1.697 16.338-39.254 39.042-76.598 74.477-121.157 63.655-78.508 130.705-139.405 204.545-186.298 9.124-5.941 18.884-10.609 28.008-15.277 8.487-4.244 16.338-8.275 23.34-12.731 0.849-0.424 1.485-0.849 2.334-1.273 7.002-3.607 13.792-5.305 20.582-5.305 16.975 0 28.008 10.821 31.615 14.429l79.357 79.357c12.307 12.307 25.674 18.884 38.83 18.884 16.126 0 29.281-9.973 37.557-18.884l127.947-127.735c25.462-25.462 25.25-53.046-0.637-79.993-8.912-9.548-18.248-18.672-28.22-28.22-14.853-14.429-30.342-29.281-44.346-46.044-24.401-26.311-53.47-38.617-91.027-38.617-3.607 0-7.426 0.212-11.034 0.424-69.596 4.456-134.312 31.615-182.903 54.743-131.978 63.867-247.831 154.47-343.95 269.474-79.145 95.271-132.403 183.964-167.625 279.022-21.855 58.351-30.13 105.243-26.735 147.892z" />
<glyph unicode="&#xe915;" glyph-name="calendar" d="M1022.426 49.34c-3.904 27.596-102.38 662.88-113.006 741.32-5.312 39.542-39.276 69.788-79.878 69.788h-96.988v46.208c0 21.536-17.522 39.058-39.058 39.058h-8.012c-21.538 0-39.058-17.522-39.058-39.058v-46.206h-162.244v46.206c0 21.536-17.522 39.058-39.058 39.058h-8.012c-21.538 0-39.058-17.522-39.058-39.058v-46.206h-162.244v46.206c0 21.536-17.522 39.058-39.058 39.058h-8.012c-21.538 0-39.058-17.522-39.058-39.058v-46.206h-69.058c-44.456 0-80.624-36.168-80.624-80.622 0-22.892 0-737.556 0-748.916 0-44.456 36.168-80.624 80.624-80.624 13.34 0 848.192 0 863.83 0 33.598 0 63.996 21.168 75.6 52.566 1.58 4.18 6.414 19.86 2.372 46.486zM676.472 906.656c0 4.97 4.042 9.014 9.014 9.014h8.012c4.97 0 9.014-4.044 9.014-9.014v-133.534c0-4.97-4.044-9.014-9.014-9.014h-8.012c-4.972 0-9.014 4.044-9.014 9.014v133.534zM655.482 748.144c0.692-0.83 1.426-1.62 2.182-2.388 0.124-0.126 0.246-0.254 0.372-0.378 0.77-0.764 1.574-1.49 2.406-2.186 0.152-0.128 0.304-0.252 0.458-0.378 0.844-0.688 1.714-1.342 2.616-1.956 0.138-0.094 0.28-0.184 0.42-0.276 0.946-0.626 1.912-1.226 2.912-1.77 0.052-0.028 0.106-0.052 0.158-0.082 0.996-0.536 2.018-1.028 3.064-1.478 0.112-0.048 0.22-0.1 0.332-0.148 1.036-0.434 2.098-0.818 3.174-1.164 0.18-0.058 0.358-0.118 0.54-0.172 1.062-0.324 2.144-0.6 3.242-0.836 0.194-0.042 0.388-0.080 0.584-0.118 1.118-0.22 2.25-0.398 3.4-0.52 0.152-0.016 0.304-0.024 0.456-0.040 1.216-0.114 2.442-0.186 3.686-0.186h8.012c1.244 0 2.47 0.072 3.686 0.186 0.152 0.014 0.306 0.022 0.456 0.040 1.15 0.122 2.282 0.3 3.4 0.52 0.196 0.038 0.39 0.076 0.584 0.118 1.1 0.234 2.182 0.51 3.242 0.836 0.18 0.056 0.36 0.116 0.54 0.172 1.078 0.346 2.14 0.73 3.174 1.164 0.112 0.048 0.22 0.1 0.332 0.148 1.046 0.45 2.070 0.942 3.064 1.478 0.052 0.028 0.106 0.052 0.158 0.082 1.002 0.544 1.966 1.144 2.912 1.77 0.14 0.092 0.282 0.182 0.42 0.276 0.902 0.614 1.77 1.27 2.616 1.956 0.154 0.126 0.306 0.25 0.458 0.378 0.832 0.698 1.634 1.422 2.406 2.186 0.126 0.124 0.248 0.252 0.372 0.378 0.752 0.768 1.486 1.558 2.178 2.388 0.026-0.542 0.040-1.084 0.040-1.628 0-18.776-15.274-34.050-34.052-34.050-18.776 0-34.050 15.274-34.050 34.050 0.010 0.544 0.022 1.086 0.050 1.628zM428.102 906.656c0 4.97 4.042 9.014 9.014 9.014h8.012c4.97 0 9.014-4.044 9.014-9.014v-133.534c0-4.97-4.044-9.014-9.014-9.014h-8.012c-4.972 0-9.014 4.044-9.014 9.014v133.534zM407.108 748.144c0.692-0.83 1.426-1.62 2.182-2.388 0.124-0.126 0.246-0.254 0.372-0.378 0.77-0.764 1.574-1.49 2.406-2.186 0.152-0.128 0.304-0.252 0.458-0.378 0.844-0.688 1.714-1.342 2.616-1.956 0.138-0.094 0.28-0.184 0.42-0.276 0.946-0.626 1.912-1.226 2.912-1.77 0.052-0.028 0.106-0.052 0.158-0.082 0.996-0.536 2.020-1.028 3.064-1.478 0.112-0.048 0.22-0.1 0.332-0.148 1.036-0.434 2.098-0.818 3.174-1.164 0.18-0.058 0.358-0.118 0.54-0.172 1.062-0.324 2.144-0.6 3.242-0.836 0.194-0.042 0.388-0.080 0.584-0.118 1.118-0.22 2.25-0.398 3.4-0.52 0.152-0.016 0.304-0.024 0.458-0.040 1.214-0.114 2.442-0.186 3.686-0.186h8.012c1.244 0 2.47 0.072 3.686 0.186 0.152 0.014 0.306 0.022 0.458 0.040 1.15 0.122 2.282 0.3 3.4 0.52 0.196 0.038 0.39 0.076 0.584 0.118 1.1 0.234 2.182 0.51 3.242 0.836 0.18 0.056 0.36 0.116 0.54 0.172 1.078 0.346 2.14 0.73 3.174 1.164 0.112 0.048 0.22 0.1 0.332 0.148 1.046 0.45 2.070 0.942 3.064 1.478 0.052 0.028 0.106 0.052 0.158 0.082 1 0.544 1.966 1.144 2.912 1.77 0.14 0.092 0.282 0.182 0.42 0.276 0.902 0.614 1.77 1.27 2.616 1.956 0.154 0.126 0.306 0.25 0.458 0.378 0.832 0.698 1.634 1.422 2.406 2.186 0.126 0.124 0.248 0.252 0.372 0.378 0.75 0.768 1.484 1.558 2.176 2.388 0.026-0.542 0.040-1.084 0.040-1.628 0-18.776-15.274-34.050-34.052-34.050s-34.052 15.274-34.052 34.050c0.012 0.544 0.024 1.086 0.050 1.628zM179.728 906.656c0 4.97 4.044 9.014 9.014 9.014h8.012c4.97 0 9.014-4.044 9.014-9.014 0-25.1 0-107.79 0-133.534 0-4.97-4.044-9.014-9.014-9.014h-8.014c-4.97 0-9.014 4.044-9.014 9.014 0.002 12.074 0.002 120.662 0.002 133.534zM170.102 738.808c0.052-0.028 0.106-0.052 0.158-0.082 0.996-0.536 2.020-1.028 3.064-1.478 0.112-0.048 0.22-0.1 0.332-0.148 1.036-0.434 2.098-0.818 3.174-1.164 0.18-0.058 0.358-0.118 0.538-0.172 1.062-0.324 2.144-0.6 3.242-0.836 0.194-0.042 0.388-0.080 0.584-0.118 1.118-0.22 2.25-0.398 3.4-0.52 0.152-0.016 0.304-0.024 0.458-0.040 1.214-0.114 2.442-0.186 3.686-0.186h8.012c1.244 0 2.47 0.072 3.686 0.186 0.152 0.014 0.306 0.022 0.458 0.040 1.15 0.122 2.282 0.3 3.4 0.52 0.196 0.038 0.39 0.076 0.584 0.118 1.1 0.234 2.182 0.51 3.242 0.836 0.18 0.056 0.36 0.116 0.54 0.172 1.078 0.346 2.14 0.73 3.174 1.164 0.112 0.048 0.22 0.1 0.332 0.148 1.046 0.45 2.070 0.942 3.064 1.478 0.052 0.028 0.106 0.052 0.158 0.082 1 0.544 1.968 1.144 2.912 1.77 0.14 0.092 0.282 0.182 0.42 0.276 0.902 0.614 1.77 1.27 2.616 1.956 0.154 0.126 0.306 0.25 0.458 0.378 0.832 0.698 1.634 1.422 2.406 2.186 0.126 0.124 0.248 0.252 0.372 0.378 0.752 0.77 1.486 1.56 2.178 2.39 0.026-0.542 0.040-1.084 0.040-1.628 0-18.776-15.274-34.050-34.052-34.050-19.452 0-34.956 16.34-34.010 35.68 3.070-3.672 7.052-6.978 11.374-9.336zM30.046 779.828c0 27.888 22.69 50.578 50.58 50.578h69.060v-36.448c-43.248-39.298-15.352-111.538 43.064-111.538 35.342 0 64.096 28.754 64.096 64.096 0 18.168-7.744 35.37-21.032 47.444v36.444h162.244v-36.448c-13.288-12.074-21.032-29.274-21.032-47.442 0-35.344 28.754-64.096 64.096-64.096s64.096 28.754 64.096 64.096c0 18.168-7.744 35.37-21.032 47.444v36.446h162.244v-36.448c-13.288-12.074-21.032-29.274-21.032-47.442 0-35.344 28.754-64.096 64.096-64.096 35.344 0 64.096 28.754 64.096 64.096 0 18.168-7.744 35.37-21.032 47.444v36.446h96.988c27.89 0 50.582-22.69 50.582-50.578v-153.492h-850.082v153.494zM991.912 13.376c-7.306-19.766-26.378-33.046-47.46-33.046h-52.188c11.184 13.842 17.902 31.438 17.902 50.58v198.966c0 8.296-6.726 15.022-15.022 15.022s-15.022-6.726-15.022-15.022v-198.966c0-27.89-22.692-50.58-50.582-50.58h-748.916c-27.89 0-50.58 22.69-50.58 50.58v509.294h376.124c8.296 0 15.022 6.726 15.022 15.022s-6.726 15.022-15.022 15.022h-376.122v26.040h850.080v-26.040h-404.054c-8.296 0-15.022-6.726-15.022-15.022s6.726-15.022 15.022-15.022h404.054v-240.224c0-8.296 6.726-15.022 15.022-15.022s15.022 6.726 15.022 15.022c0 11.762 0 271.092 0 282.884l82.49-537.624c0.010-0.076 0.022-0.15 0.034-0.226 3.176-20.718-0.702-31.426-0.782-31.638zM342.374 463.184h-49.458c-8.296 0-15.022-6.726-15.022-15.022s6.726-15.022 15.022-15.022h49.458c8.298 0 15.022 6.726 15.022 15.022 0.002 8.296-6.724 15.022-15.022 15.022zM479.872 463.184h-49.464c-8.296 0-15.022-6.726-15.022-15.022s6.726-15.022 15.022-15.022h49.464c8.298 0 15.022 6.726 15.022 15.022 0.002 8.296-6.722 15.022-15.022 15.022zM617.372 463.184h-49.466c-8.296 0-15.022-6.726-15.022-15.022s6.726-15.022 15.022-15.022h49.466c8.296 0 15.022 6.726 15.022 15.022 0.002 8.296-6.726 15.022-15.022 15.022zM754.864 463.184h-49.464c-8.296 0-15.022-6.726-15.022-15.022s6.726-15.022 15.022-15.022h49.464c8.298 0 15.022 6.726 15.022 15.022 0.002 8.296-6.722 15.022-15.022 15.022zM204.88 342.152h-49.464c-8.296 0-15.022-6.726-15.022-15.022s6.726-15.022 15.022-15.022h49.464c8.298 0 15.022 6.726 15.022 15.022 0.002 8.298-6.722 15.022-15.022 15.022zM342.374 342.152h-49.458c-8.296 0-15.022-6.726-15.022-15.022s6.726-15.022 15.022-15.022h49.458c8.298 0 15.022 6.726 15.022 15.022 0.002 8.298-6.724 15.022-15.022 15.022zM479.872 342.152h-49.464c-8.296 0-15.022-6.726-15.022-15.022s6.726-15.022 15.022-15.022h49.464c8.298 0 15.022 6.726 15.022 15.022 0.002 8.298-6.722 15.022-15.022 15.022zM617.372 342.152h-49.466c-8.296 0-15.022-6.726-15.022-15.022s6.726-15.022 15.022-15.022h49.466c8.296 0 15.022 6.726 15.022 15.022 0.002 8.298-6.726 15.022-15.022 15.022zM754.864 342.152h-49.464c-8.296 0-15.022-6.726-15.022-15.022s6.726-15.022 15.022-15.022h49.464c8.298 0 15.022 6.726 15.022 15.022 0.002 8.298-6.722 15.022-15.022 15.022zM204.88 221.118h-49.464c-8.296 0-15.022-6.726-15.022-15.022s6.726-15.022 15.022-15.022h49.464c8.298 0 15.022 6.726 15.022 15.022 0.002 8.296-6.722 15.022-15.022 15.022zM342.374 221.118h-49.458c-8.296 0-15.022-6.726-15.022-15.022s6.726-15.022 15.022-15.022h49.458c8.298 0 15.022 6.726 15.022 15.022 0.002 8.296-6.724 15.022-15.022 15.022zM479.872 221.118h-49.464c-8.296 0-15.022-6.726-15.022-15.022s6.726-15.022 15.022-15.022h49.464c8.298 0 15.022 6.726 15.022 15.022 0.002 8.296-6.722 15.022-15.022 15.022zM617.372 221.118h-49.466c-8.296 0-15.022-6.726-15.022-15.022s6.726-15.022 15.022-15.022h49.466c8.296 0 15.022 6.726 15.022 15.022 0.002 8.296-6.726 15.022-15.022 15.022zM754.864 221.118h-49.464c-8.296 0-15.022-6.726-15.022-15.022s6.726-15.022 15.022-15.022h49.464c8.298 0 15.022 6.726 15.022 15.022 0.002 8.296-6.722 15.022-15.022 15.022zM204.88 100.082h-49.464c-8.296 0-15.022-6.726-15.022-15.022s6.726-15.022 15.022-15.022h49.464c8.298 0 15.022 6.726 15.022 15.022 0.002 8.296-6.722 15.022-15.022 15.022zM342.374 100.082h-49.458c-8.296 0-15.022-6.726-15.022-15.022s6.726-15.022 15.022-15.022h49.458c8.298 0 15.022 6.726 15.022 15.022 0.002 8.296-6.724 15.022-15.022 15.022zM479.872 100.082h-49.464c-8.296 0-15.022-6.726-15.022-15.022s6.726-15.022 15.022-15.022h49.464c8.298 0 15.022 6.726 15.022 15.022 0.002 8.296-6.722 15.022-15.022 15.022zM617.372 100.082h-49.466c-8.296 0-15.022-6.726-15.022-15.022s6.726-15.022 15.022-15.022h49.466c8.296 0 15.022 6.726 15.022 15.022 0.002 8.296-6.726 15.022-15.022 15.022z" />
<glyph unicode="&#xe916;" glyph-name="calendar-1" d="M898.688 878.906h-7.563v21.359c0 34.039-27.695 61.734-61.734 61.734s-61.727-27.695-61.727-61.734v-21.359h-87.828v21.359c-0.008 34.039-27.695 61.734-61.734 61.734-34.047 0-61.734-27.695-61.734-61.734v-21.359h-87.828v21.359c0 34.039-27.695 61.734-61.734 61.734s-61.734-27.695-61.734-61.734v-21.359h-87.828v21.359c0 34.039-27.688 61.734-61.734 61.734-34.031 0-61.727-27.695-61.727-61.734v-21.359h-7.57c-46.43 0-84.211-37.781-84.211-84.211v-639.759c0-8.281 6.719-15 15.008-15s15.008 6.719 15.008 15v521.845h880.885v-128.344c0-8.281 6.711-15 15-15s15.008 6.719 15.008 15v246.258c0 46.43-37.781 84.211-84.219 84.211zM797.672 900.266c0 17.492 14.227 31.719 31.719 31.719s31.719-14.227 31.719-31.719v-71.93c0-17.492-14.227-31.719-31.719-31.719s-31.719 14.227-31.719 31.719zM586.375 900.266c0 17.492 14.234 31.719 31.727 31.719 17.484 0 31.719-14.227 31.719-31.719v-71.93c0-17.492-14.227-31.719-31.719-31.719s-31.727 14.227-31.727 31.719zM375.086 900.266c0 17.492 14.227 31.719 31.719 31.719s31.719-14.227 31.719-31.719v-71.93c0-17.492-14.227-31.719-31.719-31.719-17.484 0-31.719 14.227-31.719 31.719zM163.788 900.266c0 17.492 14.234 31.719 31.719 31.719 17.492 0 31.727-14.227 31.727-31.719v-71.93c0-17.492-14.234-31.719-31.727-31.719-17.484 0-31.719 14.227-31.719 31.719zM72.015 706.789v87.906c0 29.883 24.313 54.195 54.195 54.195h7.57v-20.555c0-34.039 27.695-61.734 61.734-61.734s61.727 27.695 61.727 61.734v20.555h87.828v-20.555c0-34.039 27.695-61.734 61.734-61.734s61.734 27.695 61.734 61.734v20.555h87.828v-20.555c0-34.039 27.688-61.734 61.727-61.734s61.734 27.695 61.734 61.734v20.555h87.828v-20.555c0-34.039 27.695-61.734 61.734-61.734s61.734 27.695 61.734 61.734v20.555h7.563c29.891 0 54.203-24.313 54.203-54.195v-87.906zM967.899 503.39c-8.289 0-15.008-6.719-15.008-15.008v-466.165c0-29.891-24.313-54.203-54.203-54.203h-772.478c-29.883 0-54.203 24.313-54.203 54.203v72.664c0 8.289-6.711 15.008-15 15.008s-15.008-6.719-15.008-15.008v-72.664c0-46.438 37.781-84.219 84.211-84.219h772.478c46.438 0 84.219 37.781 84.219 84.219v466.165c0 8.289-6.719 15.008-15.008 15.008zM194.21 445.788h68.008c21.305 0 38.641 17.336 38.641 38.641v68.008c0 21.305-17.336 38.649-38.641 38.649h-68.008c-21.313 0-38.649-17.344-38.649-38.649v-68.008c0-21.305 17.336-38.641 38.649-38.641zM185.577 552.437c0 4.758 3.867 8.633 8.625 8.633h68.008c4.766 0 8.633-3.875 8.633-8.633v-68.008c0-4.758-3.867-8.633-8.633-8.633h-68c-4.766 0-8.633 3.875-8.633 8.633zM383.703 445.788h68.008c21.305 0 38.641 17.336 38.641 38.641v68.008c0 21.305-17.336 38.649-38.641 38.649h-68.008c-21.305 0-38.649-17.344-38.649-38.649v-68.008c0-21.305 17.336-38.641 38.649-38.641zM375.070 552.437c0 4.758 3.867 8.633 8.633 8.633h68.008c4.758 0 8.625-3.875 8.625-8.633v-68.008c0-4.758-3.867-8.633-8.625-8.633h-68.008c-4.766 0-8.633 3.875-8.633 8.633zM573.195 445.788h68.008c21.305 0 38.641 17.336 38.641 38.641v68.008c0 21.305-17.336 38.649-38.641 38.649h-68.008c-21.305 0-38.641-17.344-38.641-38.649v-68.008c-0.008-21.305 17.328-38.641 38.641-38.641zM564.563 552.437c0 4.758 3.875 8.633 8.633 8.633h68.008c4.758 0 8.633-3.875 8.633-8.633v-68.008c0-4.758-3.875-8.633-8.633-8.633h-68.008c-4.758 0-8.633 3.875-8.633 8.633zM762.688 445.788h68.008c21.313 0 38.641 17.336 38.641 38.641v68.008c0 21.305-17.328 38.649-38.641 38.649h-68.008c-21.305 0-38.641-17.344-38.641-38.649v-68.008c-0.008-21.305 17.336-38.641 38.641-38.641zM754.055 552.437c0 4.758 3.875 8.633 8.633 8.633h68.008c4.758 0 8.633-3.875 8.633-8.633v-68.008c0-4.758-3.875-8.633-8.633-8.633h-68.008c-4.758 0-8.633 3.875-8.633 8.633zM155.562 287.671c0-21.313 17.336-38.649 38.641-38.649h68.008c21.313 0 38.649 17.336 38.649 38.649v68.008c0 21.305-17.336 38.641-38.649 38.641h-68c-21.313 0-38.649-17.336-38.649-38.641zM185.577 355.679c0 4.758 3.867 8.633 8.625 8.633h68.008c4.766 0 8.633-3.875 8.633-8.633v-68.008c0-4.758-3.867-8.633-8.633-8.633h-68c-4.766 0-8.633 3.875-8.633 8.633zM345.054 287.671c0-21.313 17.336-38.649 38.649-38.649h68.008c21.305 0 38.641 17.336 38.641 38.649v68.008c0 21.305-17.336 38.641-38.641 38.641h-68.008c-21.313 0-38.649-17.336-38.649-38.641zM375.070 355.679c0 4.758 3.867 8.633 8.633 8.633h68.008c4.758 0 8.625-3.875 8.625-8.633v-68.008c0-4.758-3.867-8.633-8.625-8.633h-68.008c-4.766 0-8.633 3.875-8.633 8.633zM534.547 287.671c0-21.313 17.336-38.649 38.649-38.649h68.008c21.305 0 38.641 17.336 38.641 38.649v68.008c0 21.305-17.336 38.641-38.641 38.641h-68.008c-21.313 0-38.649-17.336-38.649-38.641zM564.563 355.679c0 4.758 3.875 8.633 8.633 8.633h68.008c4.758 0 8.633-3.875 8.633-8.633v-68.008c0-4.758-3.875-8.633-8.633-8.633h-68.008c-4.758 0-8.633 3.875-8.633 8.633zM724.039 287.671c0-21.313 17.344-38.649 38.649-38.649h68.008c21.305 0 38.641 17.336 38.641 38.649v68.008c0 21.305-17.336 38.641-38.641 38.641h-68.008c-21.305 0-38.649-17.336-38.649-38.641zM754.055 355.679c0 4.758 3.875 8.633 8.633 8.633h68.008c4.758 0 8.633-3.875 8.633-8.633v-68.008c0-4.758-3.875-8.633-8.633-8.633h-68.008c-4.758 0-8.633 3.875-8.633 8.633zM155.562 90.905c0-21.305 17.336-38.641 38.641-38.641h68.008c21.313 0 38.649 17.336 38.649 38.641v68.008c0 21.313-17.336 38.649-38.649 38.649h-68c-21.313 0-38.649-17.336-38.649-38.649zM185.577 158.912c0 4.766 3.867 8.633 8.625 8.633h68.008c4.766 0 8.633-3.867 8.633-8.633v-68.008c0-4.758-3.867-8.633-8.633-8.633h-68c-4.766 0-8.633 3.875-8.633 8.633zM345.054 90.905c0-21.305 17.336-38.641 38.649-38.641h68.008c21.305 0 38.641 17.336 38.641 38.641v68.008c0 21.313-17.336 38.649-38.641 38.649h-68.008c-21.313 0-38.649-17.336-38.649-38.649zM375.070 158.912c0 4.766 3.867 8.633 8.633 8.633h68.008c4.758 0 8.625-3.867 8.625-8.633v-68.008c0-4.758-3.867-8.633-8.625-8.633h-68.008c-4.766 0-8.633 3.875-8.633 8.633zM534.547 90.905c0-21.305 17.336-38.641 38.649-38.641h68.008c21.305 0 38.641 17.336 38.641 38.641v68.008c0 21.313-17.336 38.649-38.641 38.649h-68.008c-21.313 0-38.649-17.336-38.649-38.649zM564.563 158.912c0 4.766 3.875 8.633 8.633 8.633h68.008c4.758 0 8.633-3.867 8.633-8.633v-68.008c0-4.758-3.875-8.633-8.633-8.633h-68.008c-4.758 0-8.633 3.875-8.633 8.633zM724.039 90.905c0-21.305 17.344-38.641 38.649-38.641h68.008c21.305 0 38.641 17.336 38.641 38.641v68.008c0 21.313-17.336 38.649-38.641 38.649h-68.008c-21.305 0-38.649-17.336-38.649-38.649zM754.055 158.912c0 4.766 3.875 8.633 8.633 8.633h68.008c4.758 0 8.633-3.867 8.633-8.633v-68.008c0-4.758-3.875-8.633-8.633-8.633h-68.008c-4.758 0-8.633 3.875-8.633 8.633z" />
<glyph unicode="&#xe917;" glyph-name="user" d="M511.999 446.68c-269.853 0-489.401-219.551-489.401-489.401 0-11.746 9.533-21.279 21.279-21.279s21.279 9.533 21.279 21.279c0 246.403 200.442 446.845 446.845 446.845s446.845-200.442 446.845-446.845c0-11.746 9.533-21.279 21.279-21.279s21.279 9.533 21.279 21.279c-0.002 269.895-219.553 489.401-489.405 489.401zM511.999 960c-129.033 0-234.061-104.987-234.061-234.061s105.031-234.061 234.061-234.061 234.061 104.987 234.061 234.061-105.029 234.061-234.061 234.061zM511.999 534.434c-105.583 0-191.505 85.922-191.505 191.505s85.922 191.505 191.505 191.505c105.583 0 191.505-85.922 191.505-191.505s-85.922-191.505-191.505-191.505z" />
<glyph unicode="&#xe918;" glyph-name="user-1" d="M696 560c0 101.6-82.4 184-184 184s-184-82.4-184-184 82.4-184 184-184 184 82.4 184 184zM376 560c0 75.2 60.8 136 136 136s136-60.8 136-136-60.8-136-136-136-136 60.8-136 136zM204 94.4c4-2.4 8-3.2 12-3.2 8 0 16.8 4 20.8 12 56 99.2 161.6 160.8 275.2 160.8s219.2-61.6 276-160.8c6.4-11.2 21.6-15.2 32.8-8.8s15.2 21.6 8.8 32.8c-64.8 113.6-186.4 184.8-317.6 184.8s-252.8-71.2-317.6-184.8c-6.4-11.2-2.4-26.4 9.6-32.8z" />
<glyph unicode="&#xe919;" glyph-name="comment" d="M353.625 141.009c4.29 0.717 8.696 0.102 12.628-1.758 45.162-21.359 94.636-32.585 145.743-32.585 188.514 0 341.333 152.819 341.333 341.333s-152.819 341.333-341.333 341.333c-188.511 0-341.331-152.82-341.331-341.333 0-72.828 22.839-142.161 64.621-199.893 4.504-6.221 5.314-14.387 2.121-21.372l-51.987-113.758zM152.838 64.29c-16.862-2.812-30.016 14.362-22.91 29.909l63.603 139.179c-42.432 62.831-65.533 137.011-65.533 214.622 0 212.077 171.923 384 383.998 384 212.079 0 384-171.923 384-384 0-212.079-171.921-384-384-384-55.142 0-108.676 11.644-157.842 33.843z" />
<glyph unicode="&#xe91a;" glyph-name="search" d="M1017.75-27.584l-311.572 311.574c64.716 71.854 104.49 166.592 104.49 270.678-0.002 223.498-181.834 405.332-405.334 405.332s-405.334-181.834-405.334-405.334 181.834-405.334 405.334-405.334c104.086 0 198.822 39.774 270.678 104.49l311.572-311.572c4.166-4.166 9.626-6.25 15.084-6.25s10.916 2.084 15.084 6.25c8.332 8.334 8.332 21.834-0.002 30.166zM405.334 192c-199.958 0-362.666 162.688-362.666 362.666s162.708 362.668 362.666 362.668 362.666-162.688 362.666-362.668-162.708-362.666-362.666-362.666z" />
<glyph unicode="&#xe91b;" glyph-name="search-1" d="M426.667 810.667c-153.045 0-277.333-124.288-277.333-277.333s124.288-277.333 277.333-277.333 277.333 124.288 277.333 277.333-124.288 277.333-277.333 277.333zM426.667 768c129.536 0 234.667-105.131 234.667-234.667s-105.131-234.667-234.667-234.667-234.667 105.131-234.667 234.667 105.131 234.667 234.667 234.667zM868.437 121.771l-245.717 245.675c-8.32 8.32-21.845 8.32-30.165 0s-8.32-21.845 0-30.165l245.675-245.717c8.363-8.32 21.845-8.32 30.208 0 8.32 8.363 8.32 21.845 0 30.208z" />
<glyph unicode="&#xe91c;" glyph-name="left-arrow-1" d="M331.295 447.762l444.985 444.985c15.384 15.386 15.384 40.33 0 55.716-15.388 15.381-40.33 15.381-55.716 0l-472.843-472.843c-15.381-15.386-15.381-40.33 0-55.716l472.843-472.843c15.654-15.118 40.598-14.684 55.716 0.97 14.746 15.27 14.746 39.478 0 54.746l-444.985 444.985z" />
<glyph unicode="&#xe91d;" glyph-name="next" d="M776.847 476.1l-473.63 472.32c-15.518 15.466-40.642 15.44-56.134-0.080-15.48-15.518-15.44-40.656 0.080-56.134l445.438-444.208-445.454-444.206c-15.518-15.48-15.558-40.602-0.080-56.122 7.766-7.78 17.94-11.67 28.114-11.67 10.148 0 20.282 3.864 28.034 11.59l473.632 472.308c7.474 7.436 11.668 17.556 11.668 28.1s-4.206 20.652-11.668 28.102z" />
<glyph unicode="&#xe91e;" glyph-name="play-1" d="M170.523 923.129l736.837-475.134-736.837-475.134zM213.473 844.326v-792.664l614.63 396.332z" />
<glyph unicode="&#xe91f;" glyph-name="plus" d="M984 488h-432v432c0 22.092-17.908 40-40 40s-40-17.908-40-40v-432h-432c-22.092 0-40-17.908-40-40s17.908-40 40-40h432v-432c0-22.092 17.908-40 40-40s40 17.908 40 40v432h432c22.092 0 40 17.908 40 40s-17.908 40-40 40z" />
<glyph unicode="&#xe920;" glyph-name="plus-1" d="M544 832v-352h352v-64h-352v-352h-64v352h-352v64h352v352z" />
<glyph unicode="&#xe921;" glyph-name="flag" d="M1016.858 854.416c-132.516 94.716-348.134 94.716-480.65 0-119.272-85.26-311.766-86.654-433.808-4.612v41.93c0 28.234-22.966 51.2-51.2 51.2s-51.2-22.968-51.2-51.2v-921.6c0-9.426 7.642-17.066 17.066-17.066h68.266c9.426 0 17.066 7.642 17.066 17.066v293.096c62.018-35.806 137.658-53.756 213.334-53.756 87.034 0 174.066 23.684 240.324 71.042 121.566 86.9 319.384 86.9 440.95 0 5.224-3.734 12.074-4.224 17.734-1.292 5.684 2.924 9.258 8.784 9.258 15.174v546.136c0.002 5.508-2.656 10.682-7.14 13.882zM68.266-12.8h-34.132v904.534c0 9.408 7.658 17.066 17.066 17.066s17.066-7.658 17.066-17.066v-904.534zM989.866 325.634c-133.35 76.974-329.784 71.166-453.658-17.35-119.272-85.26-311.766-86.654-433.808-4.612v505.692c133.346-76.982 329.788-71.252 453.658 17.286 119.218 85.226 311.758 86.85 433.808 4.95v-505.966z" />
<glyph unicode="&#xe922;" glyph-name="right-quotes-symbol" d="M1023.77 646.23c0 0.111 0.012 0.222 0.012 0.333 0 134.626-109.133 243.759-243.759 243.759s-243.757-109.131-243.757-243.759c0-134.628 109.143-243.759 243.759-243.759 27.668 0 54.152 4.823 78.934 13.321-54.842-314.611-300.179-517.503-72.754-350.518 252.183 185.167 237.848 573.519 237.566 580.624zM243.759 402.805c27.668 0 54.152 4.823 78.946 13.321-54.856-314.611-300.193-517.503-72.766-350.518 252.183 185.165 237.85 573.517 237.566 580.622 0 0.111 0.012 0.222 0.012 0.333 0 134.626-109.131 243.759-243.757 243.759-134.628 0-243.759-109.131-243.759-243.759s109.143-243.757 243.759-243.757z" />
<glyph unicode="&#xe923;" glyph-name="minus" d="M0 488h1024v-80h-1024v80z" />
<glyph unicode="&#xe924;" glyph-name="minus-1" d="M984 488h-944c-22.092 0-40-17.908-40-40s17.908-40 40-40h944c22.092 0 40 17.908 40 40s-17.908 40-40 40z" />
<glyph unicode="&#xe925;" glyph-name="pdf" d="M962.118 804.676l-141.544 141.54c-8.89 8.888-20.708 13.784-33.28 13.784h-595.94c-25.95 0-47.064-21.114-47.064-47.064v-465.968h-33.096c-34.792 0-63.096-28.306-63.096-63.096v-288.58c0-34.792 28.304-63.098 63.096-63.098h497c25.952 0 47.064 21.114 47.064 47.064v224.45c0 25.952-21.114 47.066-47.064 47.066h-497c-18.25 0-33.096 14.846-33.096 33.096s14.846 33.096 33.096 33.096h33.096v-17.070c0-8.284 6.716-15 15-15s15 6.716 15 15v513.040c0 9.41 7.656 17.064 17.064 17.064h578.194v-145.322c0-17.112 13.92-31.034 31.032-31.034h145.322v-770.58c0-9.41-7.656-17.064-17.064-17.064h-737.484c-9.41 0-17.064 7.654-17.064 17.064 0 8.284-6.716 15-15 15s-15-6.716-15-15c0-25.952 21.114-47.064 47.064-47.064h737.484c25.952 0 47.064 21.114 47.064 47.064v788.332c0.002 12.57-4.894 24.39-13.784 33.28zM111.194 320.774h497c9.41 0 17.064-7.656 17.064-17.066v-224.452c0-9.41-7.656-17.064-17.064-17.064h-497c-18.25 0-33.096 14.848-33.096 33.098v234.88c9.626-5.958 20.966-9.396 33.096-9.396zM799.548 784.678v140.136l141.174-141.17h-140.142c-0.568 0-1.032 0.464-1.032 1.034zM473.142 112.824c8.284 0 15 6.716 15 15v49.866h32.502c8.284 0 15 6.716 15 15s-6.716 15-15 15h-32.502v32.454h36.602c8.284 0 15 6.716 15 15 0 8.286-6.716 15-15 15h-51.602c-8.284 0-15-6.714-15-15v-127.318c0-8.284 6.716-15.002 15-15.002zM315.48 118.606c2.81-2.79 6.61-4.354 10.568-4.354h0.056c1.066 0.004 26.196 0.1 36.234 0.276 37.066 0.648 63.97 33.012 63.97 76.956 0 46.194-26.226 77.232-65.262 77.232h-35.25c-3.984 0-7.802-1.584-10.616-4.404s-4.392-6.642-4.384-10.624v-122.414c0-1.030 0.104-2.036 0.302-3.008 0.24-3.638 1.78-7.078 4.382-9.66zM361.046 238.716c26 0 35.262-24.398 35.262-47.232 0-32.024-17.324-46.662-34.494-46.96-4.772-0.084-13.286-0.15-20.818-0.196-0.048 14.716-0.148 79.080-0.174 94.388zM190.89 112.356c8.284 0 15 6.714 15 15v40.792c7.448 0.040 15.916 0.078 20.712 0.078 28.62 0 51.904 22.964 51.904 51.194s-23.284 51.196-51.904 51.196h-35.712c-3.986 0-7.808-1.588-10.624-4.41-2.804-2.812-4.374-6.622-4.374-10.59h-0.002v-128.258c0-8.288 6.716-15.002 15-15.002zM226.602 240.614c11.874 0 21.904-9.708 21.904-21.196s-10.030-21.194-21.904-21.194c-4.764 0-13.126-0.038-20.546-0.076-0.040 7.662-0.1 34.448-0.122 42.464h20.668zM471.896 525.076c-36.866-11.636-74.704-27.742-94.888-48.576-16.654-17.19-19.672-37.134-8.282-54.72 7.73-11.934 18.356-18.172 30.304-18.172 4.586 0 9.368 0.92 14.254 2.788 17.626 6.74 36.662 25.914 58.196 58.62 6.952 10.558 13.99 22.292 20.996 34.986 2.55 0.75 5.15 1.496 7.81 2.24 42.332 11.844 90.224 20.44 132.256 24.032 25.622-24.776 52.106-44.080 74.684-49.346 24.838-5.794 44.53 5.564 52.664 30.384 4.926 15.034-0.746 29.21-15.176 37.92-14.836 8.958-40.618 13.284-76.612 12.872-7.666-0.088-15.758-0.4-24.178-0.922-16.17 16.676-32.994 36.606-49.196 58.616-12.552 17.050-23.772 34.112-33.26 50.33 1.032 3.554 2.012 7.060 2.942 10.504 10.254 38.026 13.912 67.14 10.87 86.536-4.394 28.010-22.472 31.988-30.040 32.396-25.77 1.394-43.128-11.608-46.43-34.778-2.624-18.406 3.566-43.73 18.396-75.266 3.526-7.496 7.48-15.222 11.822-23.112-1.618-5.192-3.372-10.594-5.272-16.216-13.828-40.908-32.556-84.498-51.86-121.116zM399.862 433.688c-1.070-0.134-2.874-0.36-5.958 4.402-2.51 3.876-2.646 6.8-0.504 10.792 5.008 9.336 22.106 22.436 55.192 35.968-23.092-35.816-40.35-50.116-48.73-51.162zM731.63 517.674c-0.022-0.186-0.082-0.518-0.248-1.022-3.746-11.432-8.78-12.51-17.342-10.512-10.452 2.438-23.728 10.16-38.536 21.978 40.096-0.32 54.084-7.544 56.126-10.444zM528.508 756.55c0.612 4.288 1.298 9.11 12.71 9.11 0.718 0 1.48-0.020 2.284-0.058 3.416-4.162 5.174-22.68-2.73-59.328-9.31 21.35-13.858 39.086-12.264 50.276zM549.396 628.542c6.584-10.118 13.666-20.336 21.172-30.532 10.768-14.628 22.932-29.814 35.798-44.31-14.884-1.796-30.236-4.114-45.594-6.902-10.392-1.886-28.51-5.444-49.718-10.734 4.704 9.754 9.342 19.864 13.88 30.26 9.020 20.658 17.316 41.796 24.462 62.218z" />
<glyph unicode="&#xe926;" glyph-name="label" d="M828.306 960h-632.612c-13.254 0-24-10.746-24-24v-976c0-9.548 5.66-18.188 14.414-22.002 8.754-3.812 18.934-2.074 25.928 4.426l301.46 280.266 298.382-280.186c4.54-4.262 10.442-6.504 16.434-6.504 3.216 0 6.458 0.646 9.526 1.974 8.784 3.8 14.468 12.456 14.468 22.026v976c0 13.254-10.746 24-24 24zM804.306 15.458l-274.3 257.572c-9.2 8.638-23.524 8.676-32.77 0.080l-277.542-258.028v896.918h584.614v-896.542z" />
<glyph unicode="&#xe927;" glyph-name="Group-1" d="M497.815-61.065c-200.825 93.612-334.976 263.766-405.652 478.995-55.207 167.754-53.607 307.24-53.607 313.108 0.267 17.336 15.202 30.937 32.271 29.337 271.501-21.336 413.388 184.291 414.721 186.424 12.002 17.602 37.872 17.602 49.873 0 0.265-0.533 36.538-53.074 105.879-102.147 92.011-64.808 195.759-93.079 308.841-84.278 17.336 1.334 32.005-12.268 32.27-29.337 0-5.868 1.601-145.618-53.606-313.375-70.677-215.226-204.826-385.115-405.653-478.995-7.734-3.468-17.068-3.733-25.337 0.268zM99.631 699.034c2.667-49.073 12.802-150.954 50.14-264.301 67.742-204.56 189.092-351.246 360.847-435.523 171.755 84.278 293.104 230.963 360.846 435.523 37.606 113.347 47.474 215.229 50.141 264.301-164.554-3.202-311.775 69.875-410.987 182.956-99.214-113.081-246.432-186.159-410.987-182.956zM637.3 237.11l-126.683 66.676-126.683-66.676c-21.869-11.466-47.739 7.201-43.473 31.737l24.271 141.086-102.414 100.012c-17.869 17.336-8.001 47.739 16.536 51.207l141.619 20.536 63.474 128.284c10.934 22.136 42.938 22.136 53.874 0l63.209-128.284 141.617-20.536c24.536-3.468 34.404-33.871 16.535-51.207l-102.412-100.012 24.269-141.086c4.001-24.536-21.869-43.203-43.739-31.737zM524.486 364.060l86.945-45.605-16.535 96.812c-1.601 9.6 1.599 19.735 8.534 26.671l70.142 68.541-97.078 14.136c-9.87 1.334-18.136 7.468-22.67 16.535l-43.473 88.013-43.471-88.013c-4.268-8.799-12.802-14.934-22.67-16.535l-97.080-14.136 70.142-68.541c7.203-6.935 10.403-16.803 8.536-26.671l-16.538-96.812 86.945 45.605c9.069 4.801 19.738 4.801 28.272 0z" />
<glyph unicode="&#xe928;" glyph-name="Group-2" d="M344.532 160.123l57.206 57.206c8.402 8.399 11 21.002 6.4 32.003-4.401 11-15.201 18.202-27 18.401l-162.617 1.8 87.609 156.416 41.805-24.003c10.399-6.001 23.201-5.199 32.801 2.202 9.4 7.199 13.601 19.602 10.601 31.002l-57.206 213.422c-4.198 15.8-20.401 25.201-36.204 20.8l-213.22-57.405c-11.601-3-20.002-12.8-21.602-24.602s4.2-23.401 14.601-29.402l42.004-24.202-115.811-200.42c-5.2-9.201-5.2-20.403 0-29.604l136.613-236.623c5.2-9.001 15.001-14.799 25.402-14.799l216.021-1.001c12.001 0 22.602 7.201 27.203 18.202s1.999 23.803-6.4 32.202l-58.207 58.406zM185.518 529.759c4.001 6.799 5 14.802 3 22.403s-7.001 14.001-13.801 18.002l-5.801 3.4 115.812 31.002 31.002-115.809-5.801 3.4c-6.799 4.001-15.002 5-22.602 3s-14.001-7.201-18.002-14.001l-147.613-263.427-58.205 100.81 122.012 211.22zM281.928 139.121l28.403-28.403-127.013 0.602-27.002 46.804 29.403 52.603 124.613-1.398-28.403-28.403c-11.602-11.602-11.602-30.203 0-41.805zM1020.198 333.343l-107.011 187.418c-6.001 10.401-17.603 16.202-29.404 14.602-11.799-1.6-21.601-10.002-24.801-21.604l-21.402-79.606-78.008 21.002c-11.402 3-23.603-1.001-31.004-10.401-7.199-9.403-8.2-22.203-2.399-32.604l79.608-141.814-179.218-2.199v48.205c0 12.001-7.201 22.802-18.202 27.203-11 4.6-23.803 1.999-32.202-6.403l-156.216-156.214c-11.602-11.602-11.602-30.203 0-41.805l156.216-156.214c5.599-5.601 13.199-8.602 20.8-8.602 3.802 0 7.601 0.801 11.203 2.199 11 4.603 18.202 15.404 18.202 27.203v48.607h231.222c10.601 0 20.401 5.599 25.603 14.799l136.814 236.623c5.199 9.201 5.399 20.403 0.2 29.604zM811.978 379.748l38.802-10.401c15.803-4.201 32.005 5.199 36.204 20.803l10.401 38.802 63.007-110.41-27.003-46.804-60.206-0.799-61.204 108.81zM840.781 111.521h-243.825c-7.8 0-15.401-3.2-20.8-8.602-5.601-5.599-8.602-13-8.602-20.803v-6.799l-84.808 84.808 84.808 84.808v-6.799c0-7.8 3.2-15.401 8.801-21.002 5.599-5.402 13-8.602 20.8-8.602 0.202 0 0.202 0 0.402 0l301.629 3.802-58.406-100.81zM274.127 702.777l79.606 21.402 20.803-78.006c3-11.402 12.803-20.004 24.604-21.604 1.398-0.2 2.798-0.2 3.999-0.2 10.401 0 20.001 5.402 25.403 14.403l83.008 139.813 91.61-154.215-41.805-24.003c-10.401-6.001-16.003-17.6-14.602-29.402 1.6-11.802 10.202-21.604 21.604-24.604l213.42-57.203c2.601-0.602 5.199-1.001 7.601-1.001 13.002 0 25.004 8.801 28.603 21.801l57.206 213.221c3 11.601-1.001 23.802-10.601 31.003-9.4 7.201-22.403 8.201-32.804 2.2l-42.004-24.202-115.61 200.219c-5.202 9.201-15.002 14.801-25.603 14.801h-273.226c-10.601 0-20.204-5.601-25.603-14.601l-108.811-186.418c-6.001-10.401-5.2-23.202 2-32.803 7.401-9.601 19.602-13.801 31.204-10.601zM753.372 676.974c4.001-6.802 10.401-11.802 18.002-13.801 7.601-2.002 15.601-1.001 22.403 3l5.801 3.4-31.004-115.812-115.809 31.004 5.798 3.4c6.802 4.001 11.802 10.401 13.804 18.202 1.999 7.601 0.799 15.803-3.203 22.602l-154.015 259.225h116.411l121.812-211.22zM392.338 888.194h54.006l30.802-51.805-63.606-107.21-10.401 38.804c-1.999 7.601-6.999 14.001-13.801 18.002-4.6 2.6-9.6 4-14.802 4-2.601 0-5.199-0.4-7.601-1l-38.804-10.401 64.207 109.61z" />
<glyph unicode="&#xe929;" glyph-name="Group-3" d="M671.836 428.902c0-21.071-14.444-37.865-31.941-37.865h-63.877v-75.73c0-21.071-14.444-37.865-31.941-37.865-17.774 0-31.939 17.121-31.939 37.865v75.73h-63.877c-17.777 0-31.941 17.121-31.941 37.865 0 21.074 14.444 37.865 31.941 37.865h63.877v75.73c0 21.074 14.444 37.865 31.939 37.865 17.777 0 31.941-17.121 31.941-37.865v-75.73h63.877c17.777 0 31.941-16.791 31.941-37.865zM950.4 76.595c12.498-14.817 12.498-38.853 0-53.67l-63.877-75.73c-6.111-7.245-14.164-11.195-22.497-11.195h-512.138c-17.774 0-31.939 17.121-31.939 37.865 0 21.074 14.441 37.865 31.939 37.865h128.033v115.571c-76.099 8.888-142.753 62.559-177.748 144.873l-66.099 156.728h-139.977c-53.047 0-96.095 51.036-96.095 113.925v303.248c0 21.073 14.442 38.194 31.939 38.194h56.38c36.661 0 69.433-24.036 85.819-62.889l37.494-88.9h364.107v151.789h-287.731c-17.774 0-31.939 17.122-31.939 37.865s14.164 37.865 31.939 37.865h639.898c17.774 0 31.939-17.122 31.939-37.865 0-21.073-14.441-37.865-31.939-37.865h-288.010v-151.789h96.097c158.861 0 288.008-153.107 288.008-341.444 0-146.522-100.539-265.382-223.852-265.382h-31.941v-113.925h82.765l54.715 64.865c11.942 14.815 32.215 14.815 44.713 0zM799.869 645.228v-140.595c0-41.815 28.608-75.73 63.88-75.73h93.317c-12.219 103.058-74.711 187.348-157.197 216.325zM502.697 201.385h297.172c77.21 0 141.921 65.193 156.641 151.788h-92.762c-70.546 0-128.036 68.157-128.036 151.79v151.46h-543.8c-12.22 0-23.052 8.23-28.606 21.071l-46.381 109.974c-5.555 12.841-16.386 21.073-28.606 21.073h-24.441v-265.385c0-21.071 14.442-37.865 31.939-37.865h159.974c12.22 0 23.051-8.23 28.606-21.071l74.988-177.8c27.497-64.865 82.209-105.034 143.311-105.034zM543.8 11.73h159.974v113.925h-159.974v-113.925z" />
<glyph unicode="&#xe92a;" glyph-name="Group-4" d="M997.78 841.254c0.26 31.96-11.952 61.842-34.299 84.188-22.344 22.346-51.707 34.559-83.149 34.559-0.52 0-0.777 0-1.297 0-31.962-0.26-61.582-13.252-83.669-36.118l-174.613-181.887-456.796 151.226-135.116-135.116 381.963-235.154-157.202-163.698-123.424 20.267-130.179-130.439 212.548-74.314 74.314-212.548 130.439 130.439-20.267 123.424 163.698 157.202 235.155-381.963 134.856 134.856-151.226 457.056 181.889 174.612c23.124 21.826 36.116 51.708 36.376 83.408zM921.127 799.939l-208.649-200.335 151.486-457.836-57.165-57.165-234.375 380.663-238.272-228.657 20.267-124.203-43.131-43.134-53.008 151.226-151.226 53.006 43.133 43.134 124.203-20.267 228.659 238.272-380.405 234.375 57.164 57.164 457.836-151.485 200.336 208.65c11.172 11.433 25.983 17.929 41.832 18.189 0.26 0 0.52 0 0.52 0 15.851 0 30.662-6.236 41.574-17.149 11.435-11.433 17.411-26.244 17.151-42.354 0-16.11-6.496-30.921-17.931-42.094z" />
<glyph unicode="&#xe92b;" glyph-name="Group-5" d="M810.401 174.354l-42.601 255.949c-1.8 10.199-10.601 17.797-21 17.797h-106.801c0 11.799-9.6 21.396-21.399 21.396-11.802 0-21.402-9.597-21.402-21.396v-127.974h-383.999v383.924h298.8c11.799 0 21.399 9.598 21.399 21.396s-9.6 21.396-21.399 21.396h-320c-11.8 0-21.4-9.598-21.4-21.396v-277.346h-106.6c-10.4 0-19.4-7.598-21-17.797l-42.6-255.949c0-0.602 0.2-1.001 0-1.6 0-0.599-0.4-1.201-0.4-1.999v-213.358c0-11.799 9.6-21.396 21.4-21.396h767.999c11.802 0 21.402 9.597 21.402 21.396v213.358c0 0.799-0.399 1.4-0.399 1.999-0.202 0.599 0 0.998 0 1.6zM82 405.509h88.6v-85.384h-21.2c-11.8 0-21.4-9.597-21.4-21.396 0-11.796 9.6-21.396 21.4-21.396h511.999c11.802 0 21.402 9.6 21.402 21.396 0 11.799-9.6 21.396-21.402 21.396h-21.399v85.384h88.599l35.602-213.358h-717.601l35.4 213.358zM768-21.21h-725.4v170.568h725.4v-170.568zM1002.601 960c-50.202 0-114.002-32.194-133.002-42.392l-272.2 41.592c-38.198 0-130.598-2.4-160.599-24.595l-170.601-105.979c-8.2-4.999-11.799-14.797-9.198-23.995 2.598-9.198 11-15.397 20.6-15.397h192c1.8 0 3.4 0.2 5 0.6l28.6 6.999c18.399 2.6 37-2.799 50.998-14.997 14.001-12.198 22.2-29.794 22.2-48.39 0-14.797-4.6-28.995-13.399-40.993l-67.2-92.18c-18.801-27.996-14.999-65.789 8.799-89.585 13.801-13.796 32-20.795 50.202-20.795 18.199 0 36.398 6.999 50.199 20.795l108.201 108.18c40.399 2.199 77.399 19.796 104.799 47.79 37.801-35.192 159.201-46.19 183.201-47.99 0.599 0 1.198 0 1.6 0 5.399 0 10.598 1.999 14.4 5.599 4.401 3.999 6.799 9.797 6.799 15.596v298.742c0 11.798-9.6 21.396-21.399 21.396zM832 817.428l-24.599-93.382c-20.201-38.593-59.602-62.588-103.401-62.588-5.599 0-11-2.199-15.201-6.198l-114.199-114.179c-10.801-10.798-29.399-10.798-40.2 0-9.6 9.597-11 24.596-3.999 35.192l66.598 91.384c14.001 19.395 21.601 42.191 21.601 65.986 0 30.994-13.402 60.388-36.8 80.584-19.402 16.797-43.802 25.795-70.001 25.795-5.601 0-11.2-0.4-16.801-1.2l-28.198-6.799h-114.601l108.6 67.387c13.399 9.798 72.2 17.197 133.399 17.397l253.002-38.792c-4.201-14.797-9.603-35.793-15.201-60.588zM981.399 663.457c-46.198 5.199-102.799 15.798-126.999 29.194 4.201 41.393 11.799 81.585 19.2 114.778l19.599 74.185c19.802 10.398 56.402 27.195 88.2 33.393v-251.551z" />
<glyph unicode="&#xe92c;" glyph-name="Group-6" d="M966.93 756.268h-222.134v75.999c0 35.2-28.531 63.733-63.731 63.733h-338.13c-35.2 0-63.468-28.533-63.734-63.733v-75.999h-222.131c-31.466 0-57.066-25.333-57.066-57.066v-224.532c-0.267-21.599 12-41.6 31.466-51.2l14.933-7.199v-341.33c0-34.934 28.266-62.932 63.199-62.932h804.793c34.934 0 62.932 28.265 63.199 62.932v341.33l14.932 7.465c19.469 9.6 31.734 29.601 31.468 51.2v224.265c0 31.733-25.6 57.066-57.065 57.066zM325.868 832.267c0 9.333 7.734 17.066 17.068 17.066h338.13c9.334 0 17.065-7.733 17.065-17.066v-75.999h-372.262v75.999zM930.929 74.675c0-9.068-7.465-16.535-16.532-16.535h-804.793c-9.067 0-16.533 7.468-16.533 16.535v318.129l98.932-49.331c8-4.001 16.533-5.868 25.6-6.134h61.865v-23.201c0-38.666 31.201-69.865 69.868-69.865s69.865 31.199 69.865 69.865v23.201h186.132v-23.201c0-38.666 31.199-69.865 69.865-69.865s69.868 31.199 69.868 69.865v23.201h61.865c8.801 0 17.6 2.132 25.6 6.134l98.934 49.331-0.535-318.129zM325.868 314.138v93.066c0 12.8 10.401 23.201 23.201 23.201s23.199-10.401 23.199-23.201v-93.066c0-12.8-10.399-23.199-23.199-23.199s-23.201 10.399-23.201 23.199zM651.732 314.138v93.066c0 12.8 10.399 23.201 23.199 23.201s23.199-10.401 23.199-23.201v-93.066c0-12.8-10.399-23.199-23.199-23.199s-23.199 10.399-23.199 23.199zM977.329 474.67c0-3.999-2.132-7.465-5.868-9.334l-160.264-80.266c-1.334-0.799-2.934-1.065-4.534-1.065h-61.868v23.199c0 38.666-31.199 69.868-69.865 69.868s-69.865-31.201-69.865-69.868v-23.199h-186.132v23.199c0 38.666-31.199 69.868-69.865 69.868s-69.868-31.201-69.868-69.868v-23.199h-61.866c-1.6 0-3.2 0.266-4.533 1.065l-160.265 80.266c-3.466 1.869-5.866 5.335-5.866 9.334v224.532c0 5.866 4.8 10.4 10.4 10.4h909.86c5.865 0 10.399-4.8 10.399-10.4v-224.532z" />
<glyph unicode="&#xe92d;" glyph-name="Group-7" d="M1014.29 263.258c-11.896 21.356-32.712 36.493-56.499 41.631-11.896 2.703-24.061 2.703-35.955 0.269v304.123l11.894-9.462c4.595-3.784 10.002-5.407 15.409-5.407 0.543 0 1.352 0.271 1.894 0.271 0.54 0 0.809-0.271 1.352-0.271 7.027 0 14.057 2.975 18.921 8.922 8.381 10.542 7.030 25.682-3.512 34.332l-54.607 44.603-335.48 272.495c-4.867 4.055-11.085 5.677-17.032 5.136-5.947 0.27-12.165-1.081-17.032-5.136l-390.086-317.369c-10.543-8.379-11.895-23.788-3.514-34.332 5.406-6.487 13.246-9.462 21.086-8.922 5.677-0.269 11.624 1.352 16.22 5.407l11.895 9.462v-270.6c-53.255-23.79-88.668-54.607-91.912-57.582l-94.075-48.118c-5.947-2.975-10.273-8.381-12.165-14.328-1.892-6.216-1.352-12.974 1.892-18.924l127.596-238.971c2.974-5.947 8.651-10.273 15.139-11.896 2.163-0.54 4.325-1.080 6.218-1.080 4.595 0 8.921 1.352 12.706 3.784l95.155 59.203c0.271 0.271 0.543 0.543 0.812 0.543 0.271 0.269 0.812 0.269 1.083 0.54 7.839 4.324 17.572 4.324 25.679 0.269 115.433-61.363 186.26-74.88 226.54-74.88 9.462 0 17.3 0.812 23.788 1.892 23.519 1.352 231.675 17.572 447.127 217.887l17.572 17.572c23.519 23.519 28.385 60.014 11.896 88.94zM247.9 648.748l312.773 254.382 312.773-254.382v-366.569l-50.281-28.114c-35.684-20.004-67.853-39.739-97.321-60.283-4.864-3.244-9.462-6.758-14.057-10.002 1.623 3.244 2.975 6.758 3.786 10.002 2.703 9.462 2.972 18.924 0 28.114-2.975 10.273-10.813 22.167-27.574 31.089v214.643c0 33.521-13.248 65.418-37.036 90.020-26.222 26.222-61.094 39.196-98.13 37.036-66.772-4.055-118.945-61.906-118.945-131.11v-123.543c-66.504 33.523-131.382 31.089-185.448 16.22v292.498h-0.541zM639.068 265.958c-2.432 0.271-4.864 0.543-7.299 0.543-121.108 8.11-143.816 30.546-146.248 32.98-1.083 1.352-2.163 2.703-3.515 3.784v159.764c0 43.254 32.98 80.018 73.531 82.452 22.979 1.352 44.334-6.758 60.554-22.438 14.868-15.137 22.976-35.144 22.976-55.688v-201.398zM161.124 6.441l-103.807 194.368 54.337 27.845 102.996-188.69-53.526-33.523zM967.521 208.11l-16.489-16.492c-13.248-12.434-26.493-24.059-40.010-35.144l-0.271-0.269c-2.161-1.892-4.595-3.786-6.756-5.407-191.665-155.169-367.921-163.551-369.815-163.551-1.080-0.271-2.432-0.271-3.784-0.54-20.544-3.786-82.993-5.138-220.050 67.853-11.082 5.947-23.519 9.19-35.684 9.19-5.135 0-10.271-0.54-15.409-1.62l-53.525 99.75c-1.352 2.163-2.703 4.326-3.514 6.49l-47.308 88.128c10.273 7.567 25.411 17.569 44.334 27.574 14.328 7.567 30.547 14.866 48.659 20.544 49.741 16.489 111.378 21.356 172.741-12.705 4.326-2.432 8.65-5.407 12.705-8.922 5.138-4.324 10.273-9.19 15.68-15.137 7.57-8.65 18.383-15.951 32.98-22.438 31.357-14.057 80.018-22.979 146.519-27.302 3.786-0.271 7.299-0.543 10.542-1.083 20.547-2.703 28.657-7.839 29.737-8.919 0-1.083-1.892-6.758-10.002-14.328-1.892-1.892-3.784-3.515-6.218-5.407-3.784-2.975-8.379-6.218-13.517-9.19-33.521-20.275-94.344-37.847-162.468-24.602-11.894 2.163-23.79 5.407-35.953 9.733-2.163 0.809-4.598 1.080-6.758 1.080-9.193 0.54-17.843-4.055-22.438-12.434-1.352-2.435-2.163-5.138-2.703-7.841-1.352-8.379 1.892-17.3 8.65-22.979 3.784-2.703 7.839-4.324 12.165-5.947 15.949-5.947 32.169-10.002 49.201-11.354 175.173-15.137 257.354 37.576 257.354 37.576l4.326 2.703 106.78 66.501 26.493 14.868 41.631 23.25c0.809 0.269 1.62 0.809 2.161 1.352 1.352 1.080 2.975 2.161 4.598 2.972 7.839 4.055 16.489 5.138 25.411 3.244 10.273-2.161 18.924-8.379 24.33-17.572 5.407-9.459 3.512-23.788-4.326-31.626z" />
<glyph unicode="&#xe92e;" glyph-name="Group-8" d="M351.91 286.046c-9.598 5.598-21.861 2.398-27.459-6.931l-122.369-205.813c-5.599-9.598-2.399-21.861 6.932-27.459 9.331-5.6 21.862-2.401 27.46 6.931l122.368 205.813c5.864 9.596 2.667 21.861-6.931 27.459zM269.797 234.050c0 35.458-26.126 64.25-58.118 64.25-31.725 0-56.252-28.26-56.252-64.25 0-35.458 26.127-64.25 58.118-64.25 31.726 0 56.252 28.26 56.252 64.25zM195.416 234.050c0 13.596 7.198 24.26 16.262 24.26 9.864 0 18.128-11.196 18.128-24.26 0-13.596-7.197-24.26-16.262-24.26-9.864 0-18.128 11.196-18.128 24.26zM291.926 93.293c0-35.458 26.126-64.25 58.118-64.25s58.118 28.793 58.118 64.25c0 35.458-26.126 64.25-58.118 64.25-31.992 0.266-58.118-28.793-58.118-64.25zM368.174 93.293c0-13.33-8.265-24.262-18.129-24.262s-18.127 11.198-18.127 24.262c0 13.062 8.263 24.26 18.127 24.26 9.865 0.266 18.129-10.929 18.129-24.26zM1016.536 783.513c-4.533 3.732-10.666 5.332-16.53 4.266l-218.078-40.256h-191.415c-10.932 0-19.995-9.064-19.995-19.995v-10.131h-0.801c-28.258 0-54.386 12.531-71.98 34.658l-14.93 18.662c-19.194 24.26-46.92 40.79-77.046 46.921l37.856 116.236c4.267 12.797-5.598 26.127-18.928 26.127h-302.321c-13.596 0-23.194-13.596-18.929-26.393l58.385-169.822h-42.656c-36.524 0-66.116-29.592-66.116-66.115 0-15.465 5.332-29.86 14.396-41.058-14.929-12.263-24.527-30.659-24.527-51.453 0-26.66 15.729-49.587 38.656-60.25-5.332-9.598-8.531-20.53-8.531-32.258 0-22.662 11.464-42.924 29.059-54.921-7.465-10.663-11.73-23.727-11.73-37.59 0-28.26 18.662-54.12 45.588-62.917l-79.446-81.845c-36.524-37.59-56.519-86.644-56.519-138.898 0-109.57 89.31-198.881 198.882-198.881h150.362c109.57 0 198.881 89.311 198.881 198.881 0 51.987-19.995 101.308-56.252 138.631l-78.648 80.778c22.662 4.267 44.255 14.397 61.852 29.594l15.196 13.062c16.527 14.131 37.856 22.128 59.717 22.128h20.794v-15.729c0-10.929 9.064-19.995 19.995-19.995h413.225c10.932 0 19.995 9.066 19.995 19.995v88.51c0 10.932-9.064 19.995-19.995 19.995-10.929 0-19.995-9.064-19.995-19.995v-68.515h-179.953v286.058l179.687 33.059v-75.448c0-10.929 9.066-19.993 19.995-19.993 10.932 0 19.995 9.064 19.995 19.993v99.708c0 5.865-2.667 11.464-7.198 15.196zM397.496 920.011l-51.186-156.493h-142.096l-53.853 156.493h247.136zM507.868 136.481c0-87.711-71.182-158.893-158.893-158.893h-150.093c-87.444 0-158.892 71.182-158.892 158.893 0 41.59 15.996 80.78 45.055 110.638l103.44 106.373h171.156l103.44-106.373c28.793-29.591 44.787-69.047 44.787-110.638zM549.99 460.397c-31.46 0-61.852-11.198-85.845-31.726l-15.196-13.064c-16.527-14.129-37.856-22.128-59.717-22.128h-232.739c-14.396 0-26.127 11.997-26.127 26.128 0 14.395 11.73 26.126 26.127 26.126 10.93 0 19.995 9.066 19.995 19.995s-9.064 19.995-19.995 19.995h-17.329c-14.396 0-26.126 11.73-26.126 26.126 0 14.397 11.73 26.126 26.126 26.126 10.931 0 19.995 9.066 19.995 19.995 0 10.932-9.064 19.995-19.995 19.995h-30.125c-14.396 0-26.127 11.73-26.127 26.126 0 14.397 11.73 26.128 26.127 26.128h10.131c10.93 0 19.995 9.064 19.995 19.995 0 10.929-9.064 19.993-19.995 19.993-14.396 0-26.127 11.73-26.127 26.128 0 14.395 11.73 26.126 26.127 26.126h241.805c8.531 0 16.261 5.598 18.928 13.863l13.596 42.122c22.66-3.466 43.72-15.463 58.118-33.591l14.93-18.663c25.058-31.724 62.651-49.853 103.171-49.853h0.801v-217.011h-20.528v1.067zM610.509 440.402v267.13h153.293v-282.858h-153.293v15.729zM1014.936 597.695c-7.198 4.799-16.53 4.264-23.461-0.799-6.665-5.065-9.332-14.131-6.665-22.13 2.667-7.996 10.397-13.596 18.928-13.596 8.265 0 15.997 5.334 18.928 13.33 2.933 8.265-0.266 18.129-7.73 23.195z" />
<glyph unicode="&#xe92f;" glyph-name="Group-9" d="M533.285 106.811h-469.29c-35.197 0-63.994-28.799-63.994-63.995v-42.662c0-35.199 28.797-63.995 63.994-63.995h469.29c35.196 0 63.993 28.796 63.993 63.995v42.662c0 35.196-28.796 63.995-63.993 63.995zM554.615 0.154c0-11.732-9.599-21.333-21.331-21.333h-469.29c-11.732 0-21.331 9.601-21.331 21.333v42.662c0 11.732 9.599 21.331 21.331 21.331h469.29c11.732 0 21.331-9.599 21.331-21.331v-42.662zM979.909 270.797c-27.999 27.999-203.449 187.716-329.838 295.973 14.399 17.067 26.931 33.597 36.53 48.796 4.535 7.465 14.134 22.131 19.2 38.398 2.665-0.268 5.332-0.534 7.731-0.534 16.267 0 32.532 6.132 45.063 18.664l29.864 29.864c24.798 24.798 24.798 65.328 0 90.125l-149.587 149.319c-24.798 24.798-65.326 24.798-90.124 0l-29.864-29.864c-14.399-14.399-20.265-34.13-18.132-52.795-16.265-5.066-30.93-14.399-38.395-19.198-27.731-17.598-61.062-45.329-93.591-77.859-32.532-32.53-59.997-65.594-77.595-93.325-4.532-7.2-13.865-21.865-19.198-38.129-18.664 2.399-38.396-3.733-52.795-18.132l-29.864-30.13c-11.999-11.998-18.665-27.997-18.665-45.063 0-17.064 6.666-33.063 18.665-45.061l149.853-149.853c12.532-12.534 28.796-18.666 45.063-18.666 16.265 0 32.529 6.132 45.061 18.666l29.864 29.864c14.399 14.397 20.265 34.128 18.132 52.795 15.999 5.066 30.664 14.397 38.129 19.198 14.933 9.599 31.732 22.131 49.062 36.53 107.457-125.589 267.176-301.305 295.441-329.57 29.33-29.33 57.061-44.264 82.924-44.264 19.732 0 38.129 8.533 55.462 25.866 7.465 7.465 22.93 22.93 25.332 47.996 2.933 28.262-12 58.661-43.73 90.39zM549.015 881.407l29.864 29.864c4.267 3.999 9.599 6.133 14.931 6.133 5.335 0 10.667-2.133 14.933-6.133l149.853-149.853c8.265-8.266 8.265-21.598 0-29.864l-29.864-29.863c-8.265-8.265-21.599-8.265-29.864 0l-149.853 149.852c-8.265 8.266-8.265 21.598 0 29.864zM429.027 402.252l-29.864-29.864c-8.265-8.265-21.597-8.265-29.864 0l-149.852 149.853c-4 4.001-6.133 9.333-6.133 14.933 0 5.598 2.133 10.932 6.133 14.931l29.864 29.864c4.267 3.998 9.599 6.132 14.931 6.132 5.335 0 10.667-2.133 14.933-6.132l149.853-149.853c7.999-8.265 7.999-21.599 0-29.864zM459.157 462.246l-147.985 147.988c0.266 12.798 25.329 58.395 87.991 121.321 65.326 65.327 111.989 89.592 119.457 89.858l147.985-147.987c-0.266-10.664-17.864-44.261-60.26-91.724-1.334-0.8-2.402-1.868-3.467-3.201-0.8-0.8-1.334-1.599-1.868-2.665-6.932-7.468-14.397-15.467-22.665-23.732-8.265-8.265-16.265-15.731-23.73-22.93-0.8-0.534-1.599-1.068-2.399-1.868-1.068-1.065-2.133-2.133-3.201-3.199-49.328-44.264-83.724-61.594-89.858-61.862zM981.243 184.939c-1.068-10.133-7.999-17.067-13.066-22.133-11.201-11.198-29.864-29.862-77.861 18.4-24.53 24.53-182.382 197.581-294.105 328.236 4.267 3.998 8.531 8.265 12.798 12.532s8.799 8.799 12.8 13.066c131.187-112.257 303.972-269.841 328.236-294.373 21.597-21.865 32.529-41.331 31.198-55.728z" />
<glyph unicode="&#xe930;" glyph-name="Group-10" d="M22.261-19.479h66.783v155.827c0 12.242 10.018 22.262 22.261 22.262h113.809c-28.939 28.38-47.026 67.617-47.026 111.304v44.521c0 12.244 10.018 22.262 22.261 22.262h200.348v135.235c-75.41 10.852-133.565 75.686-133.565 154.156v44.524c0 12.242 10.017 22.259 22.259 22.259h200.348v111.305c0 61.218-50.086 111.304-111.304 111.304-61.496 0-111.304-49.809-111.304-111.304 0-12.243-10.017-22.261-22.261-22.261s-22.261 10.017-22.261 22.261c0 85.983 69.843 155.826 155.826 155.826 56.765 0 106.296-30.609 133.565-75.965 27.269 45.357 76.8 75.965 133.565 75.965 85.983 0 155.825-69.843 155.825-155.826 0-12.243-10.017-22.261-22.259-22.261-12.244 0-22.262 10.017-22.262 22.261 0 61.496-49.807 111.304-111.304 111.304-61.217 0-111.304-49.809-111.304-111.304v-111.305h200.348c12.242 0 22.259-10.017 22.259-22.259v-44.524c0-78.469-58.156-143.304-133.565-154.156v-135.235h200.348c12.244 0 22.262-10.017 22.262-22.262v-44.521c0-43.686-18.086-82.924-47.027-111.304h113.81c12.242 0 22.259-10.020 22.259-22.262v-155.827h66.783c12.244 0 22.262-10.017 22.262-22.259 0-12.244-10.017-22.262-22.262-22.262h-979.477c-12.244 0-22.261 10.017-22.261 22.262 0 12.242 10.017 22.259 22.261 22.259zM712.348 626.086v22.262h-400.696v-22.262c0-61.496 49.81-111.304 111.304-111.304h178.089c61.494 0 111.304 49.807 111.304 111.304zM578.783 470.262h-133.565v-133.565h133.565v133.565zM801.39 269.914v22.259h-578.781v-22.259c0-61.496 49.809-111.304 111.305-111.304h356.173c61.496 0 111.304 49.807 111.304 111.304zM890.435 114.086h-756.869v-133.565h756.869v133.565z" />
<glyph unicode="&#xe931;" glyph-name="Group-11" d="M1004.001 3.027h-51.2v55.465h18.665c10.933 0 20.001 9.068 20.001 20.001v176.533c0 10.933-9.068 20.001-20.001 20.001h-15.2l-13.867 45.066h27.467c10.933 0 20.001 9.066 20.001 20.001 0 10.933-9.068 19.999-20.001 19.999h-39.734l-29.598 95.999c-2.667 8.268-10.402 14.134-19.201 14.134h-338.932c-8.802 0-16.534-5.599-19.201-14.134l-29.601-95.999h-39.731c-10.935 0-20.001-9.066-20.001-19.999 0-10.935 9.066-20.001 20.001-20.001h27.465l-13.867-45.066h-15.198c-10.933 0-20.001-9.068-20.001-20.001v-176.533c0-10.933 9.068-20.001 20.001-20.001h18.665v-55.465h-121.599v385.6c124.799 29.865 217.6 142.134 217.6 275.999 0.267 156.267-126.933 283.467-283.2 283.467-156.534 0-283.734-127.2-283.734-283.734 0-133.599 93.067-246.134 217.6-275.999v-385.6h-197.6c-10.933 0-20-9.066-20-20.001 0-10.933 9.067-19.999 20-19.999h984.001c10.933 0 19.999 9.066 19.999 19.999 0 11.202-9.066 20.268-19.999 20.268zM827.199 58.492v-55.465h-230.667v55.465h230.667zM472.533 98.492v136.535h478.934v-136.535h-478.934zM557.332 429.959h309.334l47.735-155.198h-404.801l47.733 155.198zM40 664.359c0 134.4 109.333 243.734 243.734 243.734 134.399 0 243.733-109.333 243.733-243.734 0-134.399-109.335-243.733-243.733-243.733-134.4 0-243.734 109.335-243.734 243.733zM257.6 3.027v378.932c8.533-0.8 17.334-1.067 25.867-1.067 8.799 0 17.332 0.533 25.867 1.067v-378.932h-51.733zM511.2 3.027v55.465h45.601v-55.465h-45.601zM867.199 3.027v55.465h45.601v-55.465h-45.601zM883.467 176.092h-66.665c-10.935 0-20.001-9.066-20.001-19.999s9.066-20.001 20.001-20.001h66.665c10.933 0 20.001 9.068 20.001 20.001 0 11.2-9.068 19.999-20.001 19.999zM607.201 176.092h-66.667c-10.933 0-20.001-9.066-20.001-19.999s9.068-20.001 20.001-20.001h66.667c10.933 0 19.999 9.068 19.999 20.001 0 11.2-9.066 19.999-19.999 19.999zM300.801 617.689c45.066 0 81.865 36.266 81.865 80.534 0 44.533-36.8 80.533-81.865 80.533h-59.735c-0.267 0-0.267 0-0.533 0s-0.267 0-0.533 0c-5.066-0.267-9.332-2.4-12.799-5.6l-1.333-1.333c-2.4-3.2-4.267-6.933-4.533-11.2v-1.067c0 0 0 0 0-0.267v-214.933c0-10.933 9.067-20.001 19.999-20.001s20.001 9.068 20.001 20.001v73.333c13.067 0 30.399 0 39.467 0zM300.801 739.022c22.666 0 41.865-18.667 41.865-40.533 0-22.133-19.199-40.534-41.865-40.534-9.068 0-26.133 0-39.467-0.267 0 13.867-0.267 31.468-0.267 40.8 0 7.732 0 26.133 0 40.533h39.734z" />
<glyph unicode="&#xe932;" glyph-name="Group-12" d="M997.359 3.954c-9.004 9.004-22.363 9.004-31.364 0-14.521-14.521-41.24-14.521-55.761 0-21.202 21.199-50.241 27.88-76.96 22.363 52.564 71.44 84.8 158.275 91.481 249.756 2.323 29.042-15.682 56.922-44.724 66.795l-76.96 29.042v196.321c0 36.884-30.203 66.795-66.797 66.795h-22.361v111.811h66.795c12.198 0 22.363 10.165 22.363 22.362s-10.165 22.362-22.363 22.362h-200.677v77.831c0 43.562-34.559 78.122-78.121 78.122s-78.121-34.56-78.121-78.122v-78.121h-200.387c-12.198 0-22.362-10.165-22.362-22.362s10.165-22.362 22.362-22.362h66.795v-111.52h-22.361c-36.883 0-66.796-30.203-66.796-66.795v-196.321l-76.96-27.88c-27.88-10.163-45.595-38.043-44.724-66.795 6.679-91.481 38.915-178.316 91.481-249.756-5.518 1.161-11.036 2.323-17.715 2.323-22.362 0-43.562-9.004-59.245-24.396-14.521-14.518-41.239-14.518-55.76 0-9.003 9.004-22.362 9.004-31.365 0-9.003-9.001-9.003-22.361 0-31.364 15.682-15.682 36.883-24.394 59.245-24.394s43.562 9.001 59.245 24.394c14.521 14.521 41.239 14.521 55.76 0 18.877-18.877 45.595-27.88 72.604-23.522h4.356c15.682 3.484 30.203 11.034 41.24 22.361 14.521 14.521 41.24 14.521 55.761 0 15.682-15.682 36.881-24.394 59.245-24.394 22.361 0 43.56 9.001 59.245 24.394 15.682 15.682 40.076 15.682 55.758 0 32.236-32.236 85.964-32.236 118.2 0 15.682 15.682 40.078 15.682 55.761 0 11.034-11.034 26.716-18.877 42.399-22.361h1.164c5.517-1.161 11.034-1.161 15.682-1.161 22.361 0 43.562 9.001 59.245 24.394s40.076 15.682 55.758 0c15.682-15.682 36.884-24.394 59.245-24.394 22.363 0 43.562 9.001 59.245 24.394 10.455 8.132 10.455 21.492 1.454 30.203zM468.802 869.39c0 18.877 14.521 33.398 33.397 33.398s33.397-14.521 33.397-33.398v-78.121h-66.795v78.121zM334.92 746.835h334.558v-111.518h-334.558v111.518zM245.764 568.23c0 12.198 10.164 22.363 22.362 22.363h468.44c12.196 0 22.361-10.165 22.361-22.363v-180.639l-248.595 90.319c-1.161 0-1.161 0-2.323 0h-1.161c-2.325 0-5.52 0-7.842 0h-1.161c-1.161 0-1.161 0-2.323 0l-249.757-90.319v180.639zM616.915 3.954c-15.682-15.682-40.078-15.682-55.761 0-32.236 32.236-85.964 32.236-118.2 0-14.521-14.521-41.237-14.521-55.758 0-15.685 15.682-36.884 24.396-59.245 24.396-22.363 0-43.562-9.004-59.245-24.396-3.197-3.484-6.681-5.517-11.037-7.84-76.67 71.44-125.75 174.247-133.591 283.443-1.162 9.004 5.518 18.877 14.521 22.363l341.238 123.717v-303.194c0-12.198 10.165-22.361 22.361-22.361 12.198 0 22.363 10.163 22.363 22.361v303.194l341.237-122.845c9.004-3.194 15.682-12.198 14.521-22.363-7.84-109.196-55.761-212.003-133.882-283.153-3.484 2.323-7.84 4.356-11.034 7.84-32.528 32.526-85.964 32.528-118.489-1.161z" />
<glyph unicode="&#xe933;" glyph-name="Group-13" d="M913.067 281.008c-0.266 1.599-0.266 3.199-0.534 4.798-5.6 35.735-36.532 63.468-73.867 63.468-41.065 0-74.667-33.602-74.667-74.667 0-41.067 33.602-74.667 74.667-74.667 37.335 0 68.267 27.465 73.867 63.466 0.8 5.6 1.068 11.732 0.534 17.601zM872.799 268.208c-0.8-4.001-2.133-8.002-4.267-11.469-6.132-10.133-17.067-17.067-29.867-17.067-19.2 0-34.665 15.735-34.665 34.667 0 19.2 15.465 34.667 34.665 34.667 12.8 0 23.735-6.934 29.867-17.067 4.267-6.934 5.6-15.467 4.267-23.732zM185.324 349.274c-37.333 0-68.267-27.468-73.867-63.468-1.067-7.465-1.067-15.199 0-22.667 5.6-35.733 36.533-63.466 73.867-63.466 41.067 0 74.667 33.599 74.667 74.667 0 41.333-33.6 74.935-74.667 74.935zM155.458 256.739c-6.4 10.667-6.4 24.8 0 35.467 6.133 10.135 17.067 17.067 29.867 17.067 19.2 0 34.667-15.733 34.667-34.665 0-19.2-15.467-34.667-34.667-34.667-12.8-0.268-23.733 6.666-29.867 16.798zM1004 103.136h-5.866v259.733c0 52.534-38.4 96.268-88.8 104.268l-60.533 259.466v0.267c-16.001 62.667-72.002 106.4-136.533 106.4h-5.868v92.267c0 10.933-9.065 20-20 20h-348.799c-10.935 0-20-9.067-20-20v-92.267h-5.868c-64.532 0-120.532-43.733-136.532-106.4v-0.267l-60.534-259.466c-50.133-7.999-88.8-51.734-88.8-104.268v-259.733h-5.867c-10.933 0-20-9.067-20-20s9.067-20 20-20h104.533v-73.867c0-10.932 9.067-20 20-20h163.732c10.935 0 20.002 9.067 20.002 20v72.533h367.465v-72.533c0-10.932 9.067-20 20-20h163.735c10.932 0 20 9.067 20 20v73.867h104.533c10.932 0 20 9.067 20 20s-9.067 20-20 20zM357.6 905.536h308.534v-72.267h-308.534v72.267zM214.133 717.27c11.467 44.8 51.468 76 97.599 76h400.535c46.134 0 86.133-31.2 97.599-76l58.134-248.8h-88.001v48.533c0 64.534-52.534 117.068-117.068 117.068-64.532 0-117.065-52.534-117.065-117.068v-48.533h-389.868l58.133 248.8zM740.001 468.47h-153.868v48.533c0 42.401 34.402 77.066 77.068 77.066 42.398 0 77.066-34.665 77.066-77.066v-48.533h-0.266zM288.266 9.004h-123.732v53.865h123.732v-53.865zM695.732 103.136h-367.465v71.2h367.465v-71.2zM859.468 9.004h-123.733v53.865h123.733v-53.865zM735.734 103.136v91.199c0 10.935-9.067 20-20.002 20h-407.467c-10.932 0-20-9.065-20-20v-91.199h-222.399v259.733c0 36.267 29.333 65.602 65.333 65.602h761.599c36.001 0 65.334-29.601 65.334-65.602v-259.733h-222.398z" />
<glyph unicode="&#xe934;" glyph-name="Group-14" d="M973.332 505.057l-376 74.665v245.068c0 31.467-22.666 58.133-53.865 63.2l-468.801 71.2c-18.667 2.933-37.6-2.133-52-14.667-14.667-11.733-22.667-29.867-22.667-48.533v-888.266c0-35.466 28.533-64 64-64h896c35.466 0 64 28.534 64 64v435.2c0 30.134-20.534 55.734-50.668 62.134zM213.333-13.609v192c0 11.999 9.334 21.332 21.334 21.332h128.001c11.466 0 21.332-9.334 21.332-21.332v-192h-170.667zM362.668 242.391h-128.001c-35.467 0-64-28.534-64-64v-192h-106.667c-11.467 0-21.333 9.331-21.333 21.332v888.266c0 6.4 2.666 12 7.733 16.267 3.733 3.466 8.533 5.066 13.6 5.066 1.333 0 2.667 0 3.733-0.533l468.799-70.933c10.135-1.6 17.866-10.667 17.866-21.334v-838.401h-128v192c0.269 35.735-28.265 64.269-63.731 64.269zM981.332 7.724c0-12.001-9.866-21.332-21.332-21.332h-362.668v549.865l367.468-72.532c9.866-2.132 16.532-11.2 16.532-20.8v-435.2zM832 370.388h-85.335c-11.999 0-21.332-9.334-21.332-21.332 0-12.001 9.334-21.332 21.332-21.332h85.335c11.999 0 21.332 9.331 21.332 21.332 0 11.999-9.334 21.332-21.332 21.332zM832 242.388h-85.335c-11.999 0-21.332-9.334-21.332-21.332 0-12.001 9.334-21.332 21.332-21.332h85.335c11.999 0 21.332 9.331 21.332 21.332 0 11.999-9.334 21.332-21.332 21.332zM832 114.388h-85.335c-11.999 0-21.332-9.334-21.332-21.332 0-12.001 9.334-21.332 21.332-21.332h85.335c11.999 0 21.332 9.331 21.332 21.332 0 11.999-9.334 21.332-21.332 21.332zM362.665 711.722h85.335c11.999 0 21.332 9.333 21.332 21.333s-9.334 21.333-21.332 21.333h-85.335c-11.999 0-21.332-9.333-21.332-21.333s9.334-21.333 21.332-21.333zM362.665 583.724h85.335c11.999 0 21.332 9.331 21.332 21.332 0 11.999-9.334 21.332-21.332 21.332h-85.335c-11.999 0-21.332-9.334-21.332-21.332 0-12.001 9.334-21.332 21.332-21.332zM362.665 455.724h85.335c11.999 0 21.332 9.331 21.332 21.332 0 11.999-9.334 21.332-21.332 21.332h-85.335c-11.999 0-21.332-9.334-21.332-21.332 0-12.001 9.334-21.332 21.332-21.332zM469.332 349.056c0 11.999-9.334 21.332-21.332 21.332h-85.335c-11.999 0-21.332-9.334-21.332-21.332 0-12.001 9.334-21.332 21.332-21.332h85.335c11.999 0 21.332 9.331 21.332 21.332zM234.667 370.388h-85.334c-12 0-21.333-9.334-21.333-21.332 0-12.001 9.333-21.332 21.333-21.332h85.334c12 0 21.333 9.331 21.333 21.332 0 11.999-9.333 21.332-21.333 21.332zM234.667 754.389h-85.334c-12 0-21.333-9.333-21.333-21.333s9.333-21.333 21.333-21.333h85.334c12 0 21.333 9.333 21.333 21.333s-9.333 21.333-21.333 21.333zM234.667 626.388h-85.334c-12 0-21.333-9.334-21.333-21.332 0-12.001 9.333-21.332 21.333-21.332h85.334c12 0 21.333 9.331 21.333 21.332 0 11.999-9.333 21.332-21.333 21.332zM234.667 498.388h-85.334c-12 0-21.333-9.334-21.333-21.332 0-12.001 9.333-21.332 21.333-21.332h85.334c12 0 21.333 9.331 21.333 21.332 0 11.999-9.333 21.332-21.333 21.332z" />
<glyph unicode="&#xe935;" glyph-name="Group-15" d="M825.18 662.679c0 0.868 0 1.446 0 2.314-0.289 11.858-10.701 21.115-22.559 20.536h-402.322c-0.865 0-1.444 0-2.312 0-11.86-0.289-21.115-10.703-20.536-22.561 0-0.868 0-1.446 0-2.314 0.579-11.858 10.701-21.112 22.559-20.534h402.322c0.579 0 1.444 0 2.312 0 12.15 0.579 21.115 10.701 20.536 22.559zM620.982 776.342c0 0.868 0 1.446 0 2.314-0.289 11.858-10.701 21.114-22.559 20.535h-198.413c-0.868 0-1.446 0-2.314 0-11.858-0.578-21.112-10.702-20.534-22.56 0-0.868 0-1.446 0-2.314 0.579-11.858 10.701-21.114 22.559-20.536h198.124c0.868 0 1.736 0 2.314 0 12.436 0.289 21.691 10.702 20.823 22.56zM821.704 960h-619.82c-85.034 0-126.972-43.963-128.129-105.28 0-0.578 0-0.868 0-1.157v-362.696c0-50.035 43.095-86.19 92.843-86.19h88.505v-190.602c-1.446-50.038 38.468-91.686 88.214-92.844 0.289 0 0.868 0 1.157 0h226.757v-142.879c0.579-8.389 5.786-15.908 13.594-19.379 7.232-2.893 15.908-2.314 22.561 2.314l90.819 67.968 90.819-67.968c4.626-2.604 9.544-4.339 14.751-4.628 3.18-0.289 6.651 1.157 9.254 3.471 7.232 3.182 12.436 10.122 13.594 18.222v142.879h36.155c51.482 0 93.998 41.359 95.155 92.844v616.639c-0.289 73.754-62.761 129.286-136.228 129.286zM254.813 853.563v-403.477h-88.215c-24.874 0-47.434 15.908-47.434 40.781v362.696c1.157 37.021 30.948 60.449 67.969 61.028h12.437c31.815-1.735 56.689-28.923 55.243-61.028zM782.080 24.919l-67.968 52.060c-8.678 5.496-19.668 5.496-28.344 0l-67.971-52.060-2.314 199.567c25.743-13.883 54.666-21.402 83.878-21.402s58.135 7.519 83.876 21.402l-1.157-199.567zM701.384 248.494c-0.576-0.289-1.155-0.289-2.312-0.289-74.332-0.579-135.36 59.292-135.939 133.624s59.292 135.36 133.624 135.939c74.332 0.579 135.36-59.292 135.939-133.627 0-0.576 0-1.444 0-2.312 0.868-72.886-58.135-133.046-131.313-133.335zM864.801 166.641h-36.155v90.529c67.968 71.15 65.367 183.662-5.786 251.63-71.15 67.971-183.66 65.367-251.63-5.783-65.364-68.26-65.654-175.854-1.157-244.69v-91.686h-225.6c-24.873 0.579-44.83 21.115-44.251 46.277 0 0.579 0 0.868 0 1.446v639.199c0 24.874-8.099 50.037-21.403 61.028h542.885c48.881 0 90.819-34.997 90.819-83.877v-616.639c-1.157-25.741-21.98-46.277-47.721-47.434z" />
<glyph unicode="&#xe936;" glyph-name="Group-16" d="M351.91 286.042c-9.598 5.6-21.861 2.401-27.459-6.931l-122.369-205.813c-5.599-9.598-2.399-21.861 6.932-27.459s21.862-2.398 27.46 6.931l122.368 205.813c5.864 9.598 2.667 21.861-6.931 27.459zM269.797 234.052c0 35.458-26.128 64.248-58.118 64.248-31.725 0-56.252-28.258-56.252-64.248 0-35.458 26.127-64.25 58.118-64.25 31.724 0 56.252 28.258 56.252 64.25zM195.416 234.052c0 13.596 7.198 24.26 16.262 24.26 9.864 0 18.128-11.198 18.128-24.26 0-13.596-7.197-24.262-16.262-24.262-9.864 0-18.129 11.198-18.129 24.262zM291.926 93.293c0-35.458 26.126-64.25 58.118-64.25s58.118 28.793 58.118 64.25c0 35.458-26.126 64.25-58.118 64.25-31.992 0.266-58.118-28.793-58.118-64.25zM368.174 93.293c0-13.33-8.265-24.26-18.129-24.26s-18.129 11.196-18.129 24.26c0 13.064 8.265 24.26 18.129 24.26 9.865 0.266 18.129-10.929 18.129-24.26zM1016.536 783.513c-4.533 3.732-10.666 5.332-16.53 4.266l-218.078-40.256h-191.415c-10.932 0-19.995-9.064-19.995-19.995v-10.131h-0.801c-28.258 0-54.386 12.531-71.98 34.658l-14.93 18.662c-19.194 24.26-46.92 40.79-77.046 46.921l37.856 116.236c4.267 12.797-5.598 26.127-18.928 26.127h-302.321c-13.596 0-23.194-13.596-18.929-26.393l58.385-169.822h-42.656c-36.524 0-66.116-29.592-66.116-66.115 0-15.465 5.332-29.86 14.396-41.058-14.929-12.263-24.527-30.659-24.527-51.453 0-26.66 15.729-49.587 38.656-60.25-5.332-9.598-8.531-20.53-8.531-32.258 0-22.662 11.464-42.924 29.059-54.921-7.465-10.663-11.73-23.727-11.73-37.59 0-28.26 18.662-54.12 45.588-62.917l-79.446-81.845c-36.524-37.59-56.519-86.644-56.519-138.898 0-109.57 89.31-198.881 198.882-198.881h150.362c109.57 0 198.881 89.311 198.881 198.881 0 51.987-19.995 101.308-56.252 138.631l-78.648 80.778c22.662 4.267 44.255 14.397 61.852 29.594l15.196 13.062c16.527 14.131 37.856 22.128 59.717 22.128h20.794v-15.729c0-10.929 9.064-19.995 19.995-19.995h413.225c10.932 0 19.995 9.066 19.995 19.995v88.51c0 10.932-9.064 19.995-19.995 19.995-10.929 0-19.995-9.064-19.995-19.995v-68.515h-179.953v286.058l179.687 33.059v-75.448c0-10.929 9.066-19.993 19.995-19.993 10.932 0 19.995 9.064 19.995 19.993v99.708c0 5.865-2.667 11.464-7.198 15.196zM397.496 920.011l-51.186-156.493h-142.096l-53.853 156.493h247.136zM507.868 136.481c0-87.711-71.182-158.893-158.893-158.893h-150.093c-87.444 0-158.892 71.182-158.892 158.893 0 41.59 15.996 80.78 45.055 110.638l103.44 106.373h171.156l103.44-106.373c28.793-29.591 44.787-69.047 44.787-110.638zM549.99 460.397c-31.46 0-61.852-11.198-85.845-31.726l-15.196-13.064c-16.527-14.129-37.856-22.128-59.717-22.128h-232.739c-14.396 0-26.127 11.997-26.127 26.128 0 14.395 11.73 26.126 26.127 26.126 10.93 0 19.995 9.066 19.995 19.995s-9.064 19.995-19.995 19.995h-17.329c-14.396 0-26.126 11.73-26.126 26.126 0 14.397 11.73 26.126 26.126 26.126 10.931 0 19.995 9.066 19.995 19.995 0 10.932-9.064 19.995-19.995 19.995h-30.125c-14.396 0-26.127 11.73-26.127 26.126 0 14.397 11.73 26.128 26.127 26.128h10.131c10.93 0 19.995 9.064 19.995 19.995 0 10.929-9.064 19.993-19.995 19.993-14.396 0-26.127 11.73-26.127 26.128 0 14.395 11.73 26.126 26.127 26.126h241.805c8.531 0 16.261 5.598 18.928 13.863l13.596 42.122c22.66-3.466 43.72-15.463 58.118-33.591l14.93-18.663c25.058-31.724 62.651-49.853 103.171-49.853h0.801v-217.011h-20.528v1.067zM610.509 440.402v267.13h153.293v-282.858h-153.293v15.729zM1014.936 597.695c-7.2 4.799-16.53 4.267-23.461-0.799-6.665-5.065-9.332-14.131-6.665-22.128 2.665-7.999 10.397-13.596 18.928-13.596 8.265 0 15.995 5.332 18.928 13.33 2.933 8.263-0.266 18.127-7.73 23.192z" />
<glyph unicode="&#xe937;" glyph-name="Group-17" d="M22.261-19.479h66.783v155.827c0 12.242 10.018 22.262 22.261 22.262h113.809c-28.939 28.38-47.026 67.617-47.026 111.304v44.521c0 12.244 10.018 22.262 22.261 22.262h200.348v135.235c-75.41 10.852-133.565 75.686-133.565 154.156v44.524c0 12.242 10.017 22.259 22.259 22.259h200.348v111.305c0 61.218-50.086 111.304-111.304 111.304-61.496 0-111.304-49.809-111.304-111.304 0-12.243-10.017-22.261-22.261-22.261s-22.261 10.017-22.261 22.261c0 85.983 69.843 155.826 155.826 155.826 56.765 0 106.296-30.609 133.565-75.965 27.269 45.357 76.8 75.965 133.565 75.965 85.983 0 155.825-69.843 155.825-155.826 0-12.243-10.017-22.261-22.259-22.261-12.244 0-22.262 10.017-22.262 22.261 0 61.496-49.807 111.304-111.304 111.304-61.217 0-111.304-49.809-111.304-111.304v-111.305h200.348c12.242 0 22.259-10.017 22.259-22.259v-44.524c0-78.469-58.156-143.304-133.565-154.156v-135.235h200.348c12.244 0 22.262-10.017 22.262-22.262v-44.521c0-43.686-18.086-82.924-47.027-111.304h113.81c12.242 0 22.259-10.020 22.259-22.262v-155.827h66.783c12.244 0 22.262-10.017 22.262-22.259 0-12.244-10.017-22.262-22.262-22.262h-979.477c-12.243 0-22.261 10.017-22.261 22.262 0 12.242 10.017 22.259 22.261 22.259zM712.348 626.086v22.262h-400.696v-22.262c0-61.496 49.81-111.304 111.304-111.304h178.089c61.494 0 111.304 49.807 111.304 111.304zM578.783 470.262h-133.565v-133.565h133.565v133.565zM801.39 269.914v22.259h-578.781v-22.259c0-61.496 49.809-111.304 111.305-111.304h356.173c61.496 0 111.304 49.807 111.304 111.304zM890.435 114.086h-756.869v-133.565h756.869v133.565z" />
<glyph unicode="&#xe938;" glyph-name="Group-18" horiz-adv-x="735" d="M733.845 253.22c-36.595 328.297-12.809 115.792-53.324 478.593-4.704 42.344-40.252 74.232-83.12 74.232h-128.601l65.086 112.134h49.922c12.025 0 23.788-4.705 32.412-13.331l37.378-37.378c8.103-8.364 21.435-8.364 29.536 0 8.366 8.103 8.366 21.433 0 29.536l-37.376 37.378c-16.729 16.729-38.685 25.616-61.95 25.616-134.088 0-297.715 0-431.282 0-23.263 0-45.219-8.887-61.686-25.616l-37.378-37.378c-8.103-8.364-8.103-21.433 0-29.536 8.103-8.364 21.433-8.364 29.536 0l37.378 37.378c8.626 8.626 20.127 13.331 32.412 13.331h49.924l65.085-111.872h-128.601c-42.606 0-78.415-31.889-83.12-74.233-63.255-568.509-43.39-388.677-53.322-478.854-3.921-35.548 7.58-71.097 31.105-97.759 23.263-26.139 56.72-41.298 91.484-41.821l-72.665-126.509c-5.75-9.933-2.353-22.742 7.58-28.492s22.74-2.353 28.491 7.58l32.15 56.198h493.754l32.149-56.198c5.752-9.933 18.559-13.59 28.492-7.58 9.933 5.75 13.592 18.298 7.58 28.492l-71.88 126.771c34.765 0.523 67.96 15.42 91.223 41.559 24.046 26.662 35.548 62.21 31.628 97.759zM485.53 918.179l-65.084-111.872h-104.553l-65.084 111.872h234.721zM678.692 371.625h-621.046l27.968 249.883h565.112l27.966-249.883zM138.935 764.224h458.466c21.435 0 39.208-15.944 41.561-37.117l7.057-64.038h-555.963l7.057 64.301c2.614 21.171 20.388 36.854 41.821 36.854zM145.209 64.761l28.229 49.141h389.461l28.229-49.141h-445.92zM671.112 183.43c-15.943-17.773-38.162-27.706-62.208-27.706-1.046 0-514.404 0-481.992 0-23.786 0-46.526 10.193-62.471 27.706-15.944 17.773-23.524 41.561-20.649 65.084l8.887 81.030h630.195l9.149-81.030c2.874-23.523-4.966-47.311-20.912-65.084zM647.84 269.426c-1.307 11.5-11.763 19.866-23.002 18.559-11.5-1.307-19.866-11.502-18.559-23.002l2.876-25.355c-11.5 0-20.91-9.41-20.91-20.91 0-11.502 9.41-20.912 20.91-20.912 12.023 0 23.002 4.966 30.842 13.855 8.366 8.887 12.025 20.649 10.719 32.672l-2.876 25.092zM127.18 239.632l2.875 25.092c1.307 11.5-7.057 21.695-18.558 23.002-11.24 1.307-21.695-7.059-23.002-18.559l-2.875-25.092c-1.307-12.286 2.353-23.786 10.455-32.672 8.103-8.889 19.081-13.855 31.104-13.855 11.501 0 20.911 9.41 20.911 20.912 0 11.763-9.41 21.172-20.911 21.172zM456.285 263.678h-176.435c-11.5 0-20.91-9.41-20.91-20.91s9.41-20.912 20.91-20.912h176.435c11.5 0 20.91 9.412 20.91 20.912s-9.149 20.91-20.91 20.91z" />
<glyph unicode="&#xe939;" glyph-name="Group-19" d="M510.983 316.908c-41.856 0-83.712 10.342-121.96 30.792l-275.432 147.458c-39.932 21.409-64.709 63.025-64.468 108.249s25.018 86.599 65.19 107.767l276.154 146.016c75.533 39.932 165.74 39.932 241.275 0l276.152-146.016c39.931-21.168 64.952-62.543 65.188-107.767 0.241-45.224-24.535-86.599-64.466-108.008l-275.43-147.699c-38.492-20.69-80.348-30.792-122.203-30.792zM510.983 814.852c-29.828 0-59.657-7.217-86.839-21.65l-276.154-146.015c-16.598-8.901-26.701-25.258-26.701-44.021s9.863-35.361 26.461-44.261l275.432-147.701c55.087-29.588 120.757-29.588 175.603 0l275.436 147.701c16.594 8.9 26.46 25.499 26.46 44.261s-10.107 35.361-26.701 44.021l-276.157 146.015c-27.182 14.433-57.011 21.65-86.839 21.65zM632.945 21.028l320.896 171.996c17.562 9.38 24.054 31.273 14.674 48.829-9.385 17.562-31.273 24.059-48.835 14.674l-320.896-171.991c-55.086-29.588-120.757-29.588-175.843 0l-320.897 170.307c-17.561 9.385-39.451 2.647-48.832-14.909-9.382-17.562-2.646-39.455 14.914-48.835l320.897-170.071c38.248-20.444 80.104-30.792 121.96-30.792 41.854 0 83.71 10.348 121.962 30.792zM632.945 183.404l320.896 171.991c17.562 9.385 24.054 31.273 14.674 48.835-9.385 17.562-31.273 24.054-48.835 14.674l-320.896-171.996c-55.086-29.588-120.757-29.588-175.843 0l-320.897 170.312c-17.561 9.381-39.451 2.647-48.832-14.915s-2.646-39.45 14.914-48.835l320.656-170.307c38.248-20.449 80.104-30.792 121.96-30.792 42.095 0.241 83.951 10.583 122.202 31.032z" />
<glyph unicode="&#xe93a;" glyph-name="Group-121" d="M397.995 773.837c3.074-1.785 6.341-2.578 9.609-2.578 6.727 0 13.066 3.569 16.718 9.915 15.95 28.554 41.891 48.779 73.211 56.909 10.377 2.776 16.525 13.484 13.836 24.192-2.689 10.509-13.066 17.053-23.442 14.277-41.506-10.906-75.903-37.675-97.041-75.548-5.188-9.518-1.921-21.812 7.109-27.166zM551.992 842.057c1.575-0.177 3.15-0.177 4.464-0.177 12.339 0 23.364 6 25.727 14.471 2.626 9.53-6.827 18.706-21.002 20.471-0.263 0-0.788 0.177-1.312 0.177-14.441 1.412-27.565-5.118-29.93-14.824-2.099-9.53 7.614-18.53 22.053-20.118zM1024 279.379c0 33.595-34.402 60.55-102.007 79.862-14.802 4.225-30.603 8.046-47.604 11.266-1 0.2-1.999 0.402-2.999 0.602-49.203 9.255-106.408 14.282-165.812 14.282-33.002 0-65.204-1.609-95.807-4.425l123.609 215.25c31.003 54.114 39.202 117.28 23.001 177.831-16.201 60.752-54.604 111.245-108.407 142.426-111.409 64.575-254.218 26.152-318.423-85.898l-149.211-259.705-149.211-260.111c-31.002-53.914-39.203-117.28-23.002-177.832 16.201-60.752 54.604-111.245 108.408-142.426 35.603-20.719 75.405-31.181 116.008-31.181 17.001 0 34.202 1.812 51.202 5.634 45.205 10.057 85.806 33.192 117.209 65.982 15.801-18.105 45.205-33.395 88.208-45.865 58.002-16.699 135.010-25.951 216.415-25.951 81.605 0 158.41 9.253 216.415 25.951 67.606 19.512 102.007 46.268 102.007 80.065v214.243zM983.998 279.579c0 0 0-0.2 0 0 0-5.834-13.402-24.14-73.006-41.238-54.804-15.692-127.61-24.342-205.414-24.342-30.203 0-59.604 1.407-87.406 3.823l253.418 112.452c14-2.818 27.002-5.834 39.402-9.455 59.804-17.301 73.006-35.608 73.006-41.24zM796.784 340.936l-254.018-112.855c-15.002 3.016-29.403 6.234-42.403 10.057-60.004 17.301-73.006 35.606-73.006 41.24 0 5.632 13.202 23.937 73.006 41.238 54.804 15.692 127.607 24.342 205.414 24.342 31.203 0.2 62.003-1.207 91.007-4.023zM364.151 810.459c53.204 92.738 171.613 124.724 263.819 71.012 44.405-25.749 76.407-67.793 89.807-118.085 13.402-50.292 6.6-102.596-19-147.255l-138.811-241.401c-0.6 0-1-0.2-1.599-0.2l-333.425 193.724 139.209 242.205zM136.336 25.305c-44.403 25.749-76.406 67.791-89.807 118.084-13.401 50.291-6.6 102.595 19.002 147.254l139.21 242.608 294.42-170.991c-3.399-1.007-6.8-1.812-10.199-2.816-67.606-19.515-102.007-46.27-102.007-79.865 0 0 0 0 0-0.2v-202.776c-57.805-77.249-166.613-99.981-250.619-51.298zM911.192 23.693c-54.604-15.689-127.61-24.34-205.614-24.34-78.007 0-150.811 8.65-205.614 24.34-59.804 17.101-72.806 35.608-72.806 41.24v159.525c16.001-9.253 36.603-17.701 62.006-24.944 15.601-4.425 32.802-8.448 50.803-11.869 0.8-0.2 1.799-0.402 2.601-0.402 48.404-8.85 104.407-13.68 162.811-13.68 81.206 0 158.21 9.255 216.415 25.951 25.403 7.244 46.204 15.692 62.006 24.944v-159.525c0.2-5.432-12.802-23.94-72.606-41.24z" />
<glyph unicode="&#xe93b;" glyph-name="Group" d="M671.836 428.902c0-21.071-14.444-37.865-31.941-37.865h-63.877v-75.73c0-21.071-14.444-37.865-31.941-37.865-17.774 0-31.939 17.121-31.939 37.865v75.73h-63.877c-17.777 0-31.941 17.121-31.941 37.865 0 21.074 14.444 37.865 31.941 37.865h63.877v75.73c0 21.074 14.444 37.865 31.939 37.865 17.777 0 31.941-17.121 31.941-37.865v-75.73h63.877c17.777 0 31.941-16.791 31.941-37.865zM950.4 76.595c12.498-14.817 12.498-38.853 0-53.67l-63.877-75.73c-6.111-7.245-14.164-11.195-22.497-11.195h-512.138c-17.774 0-31.939 17.121-31.939 37.865 0 21.074 14.441 37.865 31.939 37.865h128.033v115.571c-76.099 8.888-142.753 62.559-177.748 144.873l-66.099 156.728h-139.977c-53.047 0-96.095 51.036-96.095 113.925v303.248c0 21.073 14.442 38.194 31.939 38.194h56.38c36.661 0 69.433-24.036 85.819-62.889l37.494-88.9h364.107v151.789h-287.731c-17.774 0-31.939 17.122-31.939 37.865s14.164 37.865 31.939 37.865h639.898c17.774 0 31.939-17.122 31.939-37.865 0-21.073-14.441-37.865-31.939-37.865h-288.010v-151.789h96.097c158.861 0 288.008-153.107 288.008-341.444 0-146.522-100.539-265.382-223.852-265.382h-31.941v-113.925h82.765l54.715 64.865c11.942 14.815 32.215 14.815 44.713 0zM799.869 645.228v-140.595c0-41.815 28.608-75.73 63.88-75.73h93.317c-12.219 103.058-74.711 187.348-157.197 216.325zM502.697 201.385h297.172c77.21 0 141.921 65.193 156.641 151.788h-92.762c-70.546 0-128.036 68.157-128.036 151.79v151.46h-543.8c-12.22 0-23.052 8.23-28.606 21.071l-46.381 109.974c-5.555 12.841-16.386 21.073-28.606 21.073h-24.441v-265.385c0-21.071 14.442-37.865 31.939-37.865h159.974c12.22 0 23.051-8.23 28.606-21.071l74.988-177.8c27.497-64.865 82.209-105.034 143.311-105.034zM543.8 11.73h159.974v113.925h-159.974v-113.925z" />
<glyph unicode="&#xe93c;" glyph-name="Vector-1" d="M1023.401 176.789c-0.2 1.182-0.401 2.364-0.801 3.744-0.398 1.576-1 2.956-1.799 4.336-0.2 0.592-0.401 1.182-0.601 1.576l-81.784 120.823v435.003c0 46.319-38.191 84.162-85.382 84.162h-682.468c-46.991 0-85.183-37.646-85.183-84.162v-435.199l-81.784-120.823c-0.4-0.592-0.4-1.184-0.8-1.774-0.8-1.182-1.2-2.562-1.6-3.942s-0.6-2.562-0.8-3.942c0-0.592-0.4-1.182-0.4-1.97v-21.090c0-46.32 38.193-83.966 85.383-83.966h853.233c46.99 0 85.384 37.645 85.384 84.162v21.090c-0.2 0.592-0.599 1.184-0.599 1.972zM127.975 742.272c0 23.258 19.196 41.983 42.592 41.983h682.468c23.594 0 42.592-18.922 42.592-41.983v-420.418h-767.651v420.418zM117.977 279.873h787.646l56.79-84.162h-343.935c-5.599 0-10.997-2.168-14.997-6.111l-15.195-14.979h-152.97l-15.197 14.979c-4 3.942-9.399 6.111-15.197 6.111h-343.733l56.789 84.162zM938.416 111.547h-853.033c-23.595 0-42.592 18.922-42.592 41.984h353.73l14.997-14.979c4-3.942 9.399-6.111 15.197-6.111h170.567c5.599 0 10.997 2.168 15.197 6.111l15.195 14.979h353.732c-0.2-23.062-19.396-41.984-42.992-41.984z" />
<glyph unicode="&#xe93d;" glyph-name="Vector" d="M1023.401 176.789c-0.2 1.182-0.401 2.364-0.801 3.744-0.398 1.576-1 2.956-1.799 4.336-0.2 0.592-0.401 1.182-0.601 1.576l-81.784 120.823v435.003c0 46.319-38.191 84.162-85.382 84.162h-682.468c-46.991 0-85.183-37.646-85.183-84.162v-435.199l-81.784-120.823c-0.4-0.592-0.4-1.184-0.8-1.774-0.8-1.182-1.2-2.562-1.6-3.942s-0.6-2.562-0.8-3.942c0-0.592-0.4-1.182-0.4-1.97v-21.090c0-46.32 38.193-83.966 85.383-83.966h853.233c46.99 0 85.384 37.645 85.384 84.162v21.090c-0.2 0.592-0.599 1.184-0.599 1.972zM127.975 742.272c0 23.258 19.196 41.983 42.592 41.983h682.468c23.594 0 42.592-18.922 42.592-41.983v-420.418h-767.651v420.418zM117.977 279.873h787.646l56.79-84.162h-343.935c-5.599 0-10.997-2.168-14.997-6.111l-15.195-14.979h-152.97l-15.197 14.979c-4 3.942-9.399 6.111-15.197 6.111h-343.733l56.789 84.162zM938.416 111.547h-853.033c-23.595 0-42.592 18.922-42.592 41.984h353.73l14.997-14.979c4-3.942 9.399-6.111 15.197-6.111h170.567c5.599 0 10.997 2.168 15.197 6.111l15.195 14.979h353.732c-0.2-23.062-19.396-41.984-42.992-41.984z" />
</font>
</defs>
</svg>
